<svg width="25" height="15" viewBox="0 0 25 15" fill="none" xmlns="http://www.w3.org/2000/svg">
<path d="M12.7791 0C17.0176 0.109097 20.677 2.04557 23.5992 5.53668C24.06 6.08217 24.4548 6.66857 24.8892 7.24133C25.0209 7.41861 25.0472 7.54135 24.9024 7.7459C22.533 11.1961 19.545 13.7326 15.4644 14.6463C10.9889 15.6418 7.00046 14.5099 3.45956 11.5779C2.16956 10.5006 1.07702 9.21872 0.142433 7.80045C0.023964 7.62317 -0.0813415 7.50043 0.0897799 7.2686C2.06426 4.36389 4.53894 2.08648 7.81657 0.859141C9.33034 0.300017 10.8968 0.0136372 12.7791 0ZM11.6471 12.7917C16.1752 12.7917 19.8872 10.8688 22.2303 7.77318C22.3751 7.56862 22.4014 7.44589 22.2303 7.25497C21.6642 6.57311 21.0719 5.91853 20.4006 5.33213C14.8194 0.422752 7.25056 1.48645 2.72242 7.28224C2.59079 7.44589 2.57762 7.55498 2.72242 7.71863C5.26291 10.8688 8.44841 12.6962 11.6471 12.7917Z" fill="#8E8E8E"/>
<path d="M12.4898 10.9499C10.5998 10.9499 9.02984 9.36985 9.03984 7.48985C9.04984 5.59985 10.6298 4.03985 12.5198 4.04985C14.3898 4.05985 15.9498 5.61985 15.9498 7.48985C15.9498 9.37985 14.3798 10.9499 12.4898 10.9499ZM10.6598 7.47985C10.6498 8.46985 11.4698 9.31985 12.4598 9.32985C13.4498 9.34985 14.3098 8.52985 14.3298 7.54985C14.3498 6.53985 13.5198 5.67985 12.5098 5.66985C11.5198 5.66985 10.6798 6.48985 10.6598 7.47985Z" fill="#8E8E8E"/>
</svg>
