<svg width="50" height="50" viewBox="0 0 50 50" fill="none" xmlns="http://www.w3.org/2000/svg">
<path d="M38.9845 15.3492H32.1048V15.0827C32.1048 11.7278 29.4027 9 26.0793 9H23.9052C20.5818 9 17.8796 11.7278 17.8796 15.0827V15.3492H11V20.0523H12.4908V34.9454C12.4908 38.8333 15.6278 42 19.4792 42H30.5208C34.3722 42 37.5091 38.8333 37.5091 34.9454V20.0523H39V15.3492H38.9845ZM22.5385 15.0827C22.5385 14.3145 23.1597 13.7031 23.9052 13.7031H26.0793C26.8247 13.7031 27.4459 14.3145 27.4459 15.0827V15.3492H22.5385V15.0827ZM32.8502 34.9454C32.8502 36.2466 31.8098 37.2969 30.5208 37.2969H19.4792C18.1902 37.2969 17.1498 36.2466 17.1498 34.9454V20.0523H32.8502V34.9454Z" fill="#009B00"/>
<path d="M20.9856 22.5135H19.4326V34.8356H20.9856V22.5135Z" fill="#009B00"/>
<path d="M30.552 22.5135H28.999V34.8356H30.552V22.5135Z" fill="#009B00"/>
<path d="M25.7688 22.5135H24.2158V34.8356H25.7688V22.5135Z" fill="#009B00"/>
</svg>
