<svg width="35" height="28" viewBox="0 0 35 28" fill="none" xmlns="http://www.w3.org/2000/svg">
<path d="M32.169 9.77069L29.9892 7.62114L27.1583 4.82951H23.1572H19.1467V2.79163V0H0V2.79163V23.3287H4.00108C3.98221 23.4776 3.97277 23.6358 3.97277 23.794C3.97277 26.111 5.88838 28 8.24751 28C10.5972 28 12.5128 26.111 12.5128 23.794C12.5128 23.6358 12.5034 23.4776 12.4845 23.3287H22.2796C22.2607 23.4776 22.2513 23.6358 22.2513 23.794C22.2513 26.111 24.1669 28 26.5166 28C28.8757 28 30.7913 26.111 30.7913 23.794C30.7913 23.6358 30.7819 23.4776 30.763 23.3287H34.9906V23.3194H35V16.5171V12.5623L32.169 9.77069ZM10.6255 23.794C10.6255 25.0874 9.55918 26.1389 8.24751 26.1389C6.9264 26.1389 5.86007 25.0874 5.86007 23.794C5.86007 23.6358 5.87894 23.4776 5.90725 23.3287C6.12429 22.2493 7.08682 21.4397 8.24751 21.4397C9.39876 21.4397 10.3613 22.2493 10.5783 23.3287C10.6066 23.4776 10.6255 23.6358 10.6255 23.794ZM28.904 23.794C28.904 25.0874 27.8377 26.1389 26.5166 26.1389C25.2049 26.1389 24.1386 25.0874 24.1386 23.794C24.1386 23.6358 24.1575 23.4776 24.1858 23.3287C24.4028 22.2493 25.3653 21.4397 26.5166 21.4397C27.6773 21.4397 28.6398 22.2493 28.8568 23.3287C28.8851 23.4776 28.904 23.6358 28.904 23.794ZM32.169 20.5371H29.2249C28.4888 19.9415 27.5452 19.5786 26.5166 19.5786C25.488 19.5786 24.5538 19.9415 23.8177 20.5371H10.9463C10.2103 19.9415 9.27608 19.5786 8.24751 19.5786C7.21893 19.5786 6.27528 19.9415 5.53923 20.5371H2.83095V2.79163H16.3157V4.82951V7.62114V7.63044H19.1467V7.62114H25.9881L32.169 13.7255V20.5371Z" fill="#8E8E8E"/>
<path d="M18.0332 9.44482V15.5306H31.0461L24.8747 9.44482H18.0332ZM19.9205 13.6695V11.3059H24.0914L26.4883 13.6695H19.9205Z" fill="#8E8E8E"/>
<path d="M8.45496 12.4226L6.33174 10.3196L4.72754 11.9015L8.45496 15.5771L14.5604 9.55653L12.9656 7.97461L8.45496 12.4226Z" fill="#8E8E8E"/>
</svg>
