<svg width="28" height="17" viewBox="0 0 28 17" fill="none" xmlns="http://www.w3.org/2000/svg">
<g clip-path="url(#clip0)">
<path d="M13.2301 0.01C15.7401 0.01 18.2501 0.02 20.7601 0C21.1801 0 21.3301 0.13 21.2601 0.52C21.2601 0.54 21.2601 0.55 21.2601 0.57C21.3001 1.02 21.0601 1.62 21.3601 1.89C21.6501 2.16 22.2401 1.96 22.6901 1.97C23.3001 1.98 23.9001 1.99 24.5101 1.97C24.7901 1.96 24.9501 2.04 25.0901 2.3C25.9601 3.99 26.8501 5.67 27.7401 7.34C27.8301 7.51 27.8501 7.67 27.8501 7.85C27.8501 9.8 27.8401 11.75 27.8601 13.7C27.8601 14.08 27.7501 14.18 27.3901 14.16C26.8501 14.13 26.3101 14.17 25.7701 14.14C25.4601 14.12 25.3501 14.24 25.3001 14.53C24.9501 16.31 23.3301 17.32 21.6201 16.79C20.5501 16.46 19.8701 15.71 19.6701 14.6C19.6101 14.24 19.4601 14.14 19.1001 14.14C17.0001 14.16 14.9001 14.16 12.8001 14.14C12.4801 14.14 12.3501 14.21 12.3001 14.55C12.0901 15.89 10.9301 16.88 9.56009 16.91C8.13009 16.94 6.94009 16.05 6.68009 14.67C6.59009 14.21 6.42009 14.1 5.99009 14.13C5.50009 14.17 5.00009 14.17 4.52009 14.13C3.94009 14.09 4.25009 13.61 4.26009 13.38C4.28009 13.12 3.92009 12.62 4.52009 12.58C5.21009 12.53 5.90009 12.56 6.59009 12.57C6.84009 12.57 7.00009 12.52 7.17009 12.31C8.47009 10.68 10.4601 10.69 11.7701 12.33C11.9101 12.51 12.0401 12.57 12.2601 12.57C14.7201 12.56 17.1801 12.56 19.6401 12.57C19.8801 12.57 20.0201 12.5 20.1701 12.31C21.3901 10.71 23.5001 10.71 24.7401 12.3C24.9201 12.53 25.9201 12.7 26.1401 12.55C26.2401 12.48 26.2201 12.38 26.2201 12.29C26.2201 11.19 26.2101 10.09 26.2301 8.99C26.2301 8.62 26.0101 8.66 25.7801 8.66C23.9401 8.66 22.1101 8.65 20.2701 8.67C19.8401 8.68 19.6801 8.58 19.6901 8.11C19.7201 6.13 19.6901 4.14 19.7101 2.16C19.7201 1.69 19.5601 1.6 19.1301 1.6C14.6901 1.61 10.2401 1.6 5.80009 1.62C5.37009 1.62 5.21009 1.53 5.22009 1.06C5.26009 0 5.23009 0 6.31009 0C8.60009 0.01 10.9201 0.01 13.2301 0.01ZM23.5001 7.13C24.1401 7.13 24.7801 7.12 25.4101 7.13C25.7001 7.14 25.8001 7.08 25.6301 6.78C25.1001 5.82 24.5901 4.86 24.0801 3.89C23.9701 3.68 23.8401 3.58 23.5901 3.58C22.9401 3.6 22.2801 3.6 21.6301 3.58C21.3201 3.57 21.2401 3.69 21.2501 3.98C21.2601 4.9 21.2601 5.81 21.2501 6.73C21.2501 7.02 21.3301 7.14 21.6401 7.13C22.2601 7.11 22.8801 7.13 23.5001 7.13ZM9.44009 15.36C10.2001 15.36 10.7501 14.8 10.7401 14.06C10.7301 13.32 10.1701 12.76 9.42009 12.76C8.67009 12.76 8.13009 13.31 8.13009 14.08C8.14009 14.83 8.68009 15.36 9.44009 15.36ZM22.4401 15.36C23.1901 15.36 23.7501 14.8 23.7301 14.05C23.7201 13.3 23.1501 12.74 22.4101 12.76C21.7101 12.77 21.1401 13.35 21.1301 14.05C21.1201 14.78 21.7001 15.36 22.4401 15.36Z" fill="#FF6800"/>
<path d="M5.73996 3.30997C6.52996 3.30997 7.30996 3.32997 8.09996 3.29997C8.43996 3.28997 8.50996 3.41997 8.50996 3.72997C8.51996 4.88997 8.52996 4.88997 7.37996 4.88997C6.04996 4.88997 4.72996 4.87997 3.39996 4.89997C3.04996 4.90997 2.95996 4.79997 2.95996 4.45997C2.95996 3.30997 2.94996 3.30997 4.06996 3.30997C4.62996 3.30997 5.18996 3.30997 5.73996 3.30997Z" fill="#FF6800"/>
<path d="M2.73999 10.93C1.94999 10.93 1.16999 10.92 0.379988 10.94C0.0999878 10.95 0.0199878 10.85 0.00998783 10.57C-0.0300122 9.34997 -0.0400121 9.34997 1.18999 9.34997C2.49999 9.34997 3.80999 9.35997 5.11999 9.33997C5.45999 9.33997 5.55999 9.43997 5.55999 9.77997C5.55999 10.93 5.56999 10.93 4.40999 10.93C3.84999 10.93 3.29999 10.93 2.73999 10.93Z" fill="#FF6800"/>
<path d="M4.27006 7.92998C3.47006 7.92998 2.67006 7.91998 1.87006 7.93998C1.58006 7.94998 1.48006 7.85998 1.47006 7.55998C1.45006 6.35998 1.44006 6.35998 2.62006 6.35998C3.94006 6.35998 5.27006 6.36998 6.59006 6.34998C6.90006 6.34998 7.01006 6.43998 7.01006 6.75998C7.03006 7.93998 7.04006 7.93998 5.88006 7.93998C5.35006 7.92998 4.81006 7.92998 4.27006 7.92998Z" fill="#FF6800"/>
</g>
<defs>
<clipPath id="clip0">
<rect width="27.86" height="16.95" fill="white"/>
</clipPath>
</defs>
</svg>
