<svg width="13" height="24" viewBox="0 0 13 24" fill="none" xmlns="http://www.w3.org/2000/svg">
<g clip-path="url(#clip0)">
<path d="M4.07 16.79V15.95C4.07 14.74 4.26 13.74 4.63 12.96C5 12.18 5.7 11.35 6.71 10.48C8.12 9.29 9.01 8.39 9.38 7.79C9.75 7.19 9.93 6.46 9.93 5.61C9.93 4.55 9.59 3.74 8.91 3.16C8.24 2.59 7.26 2.3 5.99 2.3C5.17 2.3 4.37 2.4 3.59 2.59C2.81 2.78 1.92 3.13 0.92 3.64L0 1.54C1.96 0.51 4.01 0 6.14 0C8.12 0 9.66 0.49 10.76 1.46C11.86 2.43 12.41 3.81 12.41 5.58C12.41 6.34 12.31 7 12.11 7.58C11.91 8.16 11.61 8.7 11.22 9.21C10.83 9.72 9.98 10.55 8.67 11.69C7.62 12.58 6.93 13.32 6.59 13.91C6.25 14.5 6.08 15.29 6.08 16.27V16.78H4.07V16.79ZM3.31 21.41C3.31 20 3.93 19.3 5.18 19.3C5.78 19.3 6.24 19.48 6.57 19.84C6.9 20.2 7.06 20.73 7.06 21.41C7.06 22.07 6.89 22.59 6.56 22.96C6.23 23.33 5.77 23.51 5.18 23.51C4.64 23.51 4.19 23.35 3.84 23.02C3.49 22.7 3.31 22.16 3.31 21.41Z" fill="#FF6800"/>
</g>
<defs>
<clipPath id="clip0">
<rect width="12.41" height="23.51" fill="white"/>
</clipPath>
</defs>
</svg>
