<svg width="15" height="27" viewBox="0 0 15 27" fill="none" xmlns="http://www.w3.org/2000/svg">
<g clip-path="url(#clip0)">
<path d="M14.07 17.18C14.07 18.59 13.54 19.75 12.48 20.67C11.42 21.59 9.94 22.17 8.05 22.4V26.01H6.05V22.54C4.89 22.54 3.76 22.45 2.68 22.27C1.59 22.1 0.69 21.84 0 21.52V19.1C0.86 19.48 1.85 19.8 2.98 20.04C4.11 20.28 5.13 20.41 6.05 20.41V13.57C3.92 12.9 2.43 12.11 1.58 11.22C0.73 10.33 0.3 9.17 0.3 7.76C0.3 6.4 0.83 5.29 1.88 4.42C2.93 3.55 4.32 3.02 6.05 2.83V0H8.06V2.8C9.97 2.85 11.81 3.24 13.58 3.95L12.77 5.99C11.22 5.38 9.65 5.01 8.06 4.9V11.65C9.69 12.17 10.91 12.67 11.71 13.17C12.52 13.66 13.11 14.23 13.5 14.86C13.89 15.49 14.07 16.27 14.07 17.18ZM2.92 7.73C2.92 8.52 3.15 9.15 3.62 9.63C4.09 10.11 4.9 10.56 6.05 10.98V4.96C5.02 5.13 4.25 5.45 3.72 5.93C3.19 6.42 2.92 7.01 2.92 7.73ZM11.43 17.39C11.43 16.64 11.2 16.04 10.74 15.58C10.28 15.12 9.38 14.66 8.06 14.2V20.25C10.3 19.94 11.43 18.98 11.43 17.39Z" fill="#FF6800"/>
</g>
<defs>
<clipPath id="clip0">
<rect width="14.07" height="26.02" fill="white"/>
</clipPath>
</defs>
</svg>
