<svg width="18" height="29" viewBox="0 0 18 29" fill="none" xmlns="http://www.w3.org/2000/svg">
<g clip-path="url(#clip0)">
<path d="M17.9669 26.0838C17.776 24.4477 16.9046 22.8456 16.2159 21.3875C15.3113 19.4887 14.4067 17.5813 13.5022 15.6825C12.7387 14.0718 12.0831 11.9102 10.6723 10.7403C9.22 9.5366 7.52706 10.308 6.19925 11.2998C5.65154 11.7152 6.18266 12.6646 6.73867 12.2493C7.50216 11.6813 8.49801 10.9268 9.50216 11.2998C10.249 11.5796 10.6972 12.3934 11.054 13.0715C11.4275 13.7921 11.776 14.5296 12.1246 15.2671C12.0914 15.2586 12.0665 15.2501 12.0333 15.2417C11.3445 15.1315 10.6059 15.2501 10.0416 15.6825C9.81751 15.852 9.67643 16.1657 9.85071 16.4284C9.99179 16.6573 10.3403 16.8099 10.581 16.6234C10.6889 16.5471 10.7968 16.4793 10.9129 16.42C10.9129 16.42 10.9129 16.42 10.9212 16.42C10.9461 16.4115 10.9793 16.3945 11.0042 16.3861C11.0623 16.3691 11.1287 16.3437 11.1868 16.3352C11.2366 16.3267 11.303 16.3013 11.3611 16.3013C11.3694 16.3013 11.3611 16.3013 11.3694 16.3013C11.4026 16.3013 11.4358 16.2928 11.469 16.2928C11.5354 16.2928 11.6017 16.2928 11.6598 16.2928C11.693 16.2928 11.7262 16.3013 11.7594 16.3013C11.7594 16.3013 11.7677 16.3013 11.776 16.3013C11.8922 16.3013 12.0333 16.3521 12.1329 16.3861C12.1578 16.3945 12.1827 16.403 12.2076 16.4115C12.2159 16.4115 12.2159 16.4115 12.2242 16.42C12.2739 16.4284 12.332 16.4708 12.3818 16.4963C12.4399 16.5302 12.4897 16.5641 12.5478 16.598C12.5727 16.6149 12.5976 16.6319 12.6142 16.6488L12.6225 16.6573C12.6723 16.6997 12.7221 16.7421 12.7636 16.793C12.7885 16.8184 12.8051 16.8438 12.83 16.8692C12.8466 16.8947 12.9212 16.9964 12.8466 16.8862C12.8715 16.9286 12.9129 16.954 12.9461 16.9879C13.1453 17.4118 13.3445 17.8441 13.5437 18.268C14.2573 19.7599 14.9876 21.2519 15.6681 22.7608C15.5934 22.7693 15.5271 22.7778 15.4524 22.7862C15.0291 22.8625 14.6308 23.0829 14.3237 23.3796C14.1246 23.5746 14.1163 23.9561 14.3237 24.151C14.5395 24.3545 14.8632 24.363 15.0789 24.151C15.1038 24.1256 15.137 24.1002 15.1619 24.0747C15.1702 24.0663 15.1785 24.0578 15.1868 24.0578C15.2532 24.0154 15.3279 23.973 15.4026 23.9391C15.4109 23.9306 15.4192 23.9306 15.4275 23.9306C15.469 23.9137 15.5022 23.9052 15.5437 23.8882C15.6017 23.8713 15.6598 23.8628 15.7179 23.8543C15.8424 23.8459 15.9586 23.8459 16.0831 23.8543C16.108 23.8628 16.1412 23.8628 16.1661 23.8713C16.4731 24.5749 16.7802 25.3124 16.8881 26.0669C17.0291 26.9739 16.7885 28.3217 15.5354 27.7707C14.7304 27.4147 14.1246 26.4822 13.5685 25.8295C12.9378 25.0835 12.3154 24.346 11.6847 23.6C11.5437 23.4305 11.3943 23.2609 11.2532 23.0829C11.2698 23.0151 11.2864 22.9388 11.3113 22.871C11.3445 22.7947 11.386 22.7184 11.4358 22.6506C11.4856 22.5828 11.552 22.5234 11.61 22.4726C11.693 22.4132 11.776 22.3624 11.8673 22.32C11.9835 22.2691 12.0831 22.1081 12.1163 21.9894C12.1495 21.8622 12.1329 21.6842 12.0582 21.5655C11.9835 21.4469 11.8756 21.3451 11.7345 21.3112C11.6847 21.3027 11.6432 21.2943 11.5934 21.2943C11.4939 21.2943 11.4026 21.3197 11.3196 21.3706C10.9793 21.5147 10.7055 21.7859 10.4897 22.0911C10.4731 22.1081 10.4731 22.1335 10.4565 22.1504C9.61004 21.1417 8.75527 20.1414 7.9088 19.1326C7.46896 18.5901 7.01253 18.0476 6.5561 17.505C6.5478 17.4287 6.5312 17.3524 6.48971 17.2761C6.48141 17.2592 6.46481 17.2422 6.45652 17.2253C6.45652 17.2253 6.45652 17.2168 6.44822 17.2168C6.44822 17.2083 6.43992 17.1999 6.43992 17.1999C6.43162 17.1744 6.43162 17.149 6.42332 17.1236V17.1151C6.42332 17.0727 6.42332 17.0303 6.42332 16.9879C6.42332 16.971 6.43162 16.9625 6.43162 16.9455C6.43992 16.9032 6.45652 16.8608 6.46481 16.8269C6.47311 16.8099 6.48141 16.793 6.48971 16.776C6.51461 16.7336 6.5395 16.6912 6.5644 16.6488C6.5727 16.6319 6.5893 16.6149 6.59759 16.5895C6.59759 16.581 6.61419 16.5725 6.62249 16.5641C6.62249 16.5641 6.62249 16.5556 6.63079 16.5556C6.64739 16.5386 6.65569 16.5217 6.67228 16.5047C6.73867 16.4284 6.80506 16.3606 6.87975 16.2843C6.91295 16.2504 6.94614 16.2165 6.98764 16.1826C6.99593 16.1741 7.00423 16.1741 7.00423 16.1657C7.03743 16.1402 7.07892 16.1233 7.11212 16.0978C7.12872 16.0894 7.14531 16.0894 7.16191 16.0809C7.43577 16.0131 7.62664 15.6825 7.53535 15.4112C7.44407 15.123 7.17021 14.9534 6.87975 15.0297C6.59759 15.106 6.35693 15.284 6.14116 15.4875C5.94199 15.674 5.76772 15.8859 5.61834 16.1148C5.58515 16.1741 5.56025 16.2419 5.53535 16.3013C5.08722 15.7672 4.66398 15.1993 4.45652 14.5381C4.04988 13.2495 4.62249 11.9949 5.34448 10.8929C5.40257 10.8336 5.46067 10.7658 5.52706 10.7064C5.54365 10.698 5.54365 10.6895 5.55195 10.6895C5.57685 10.664 5.61004 10.6471 5.63494 10.6301C5.69303 10.5878 5.75112 10.5454 5.81751 10.503C6.04988 10.3419 6.28224 10.1809 6.52291 10.0452C6.5893 10.0113 6.65569 9.9774 6.72208 9.94349C6.68058 9.96045 6.68888 9.96045 6.74697 9.93502C6.78017 9.91806 6.81336 9.90959 6.85486 9.89263C6.90465 9.87568 6.95444 9.85872 7.00423 9.85025C7.02083 9.85025 7.12872 9.82482 7.14531 9.81634C7.2034 9.80786 7.2615 9.80786 7.32789 9.80786C7.34448 9.80786 7.45237 9.81634 7.46896 9.81634C7.52706 9.82482 7.58515 9.84177 7.63494 9.85872C7.65984 9.8672 7.67643 9.87568 7.67643 9.87568C7.70133 9.88416 7.71793 9.89263 7.74282 9.90959C7.99179 10.0452 8.34033 9.9774 8.47311 9.71461C8.60589 9.4603 8.5478 9.11274 8.28224 8.96863C7.75112 8.68041 7.16191 8.68041 6.61419 8.84995C6.95444 8.23961 7.28639 7.62926 7.55195 7.00196C7.70963 6.61201 7.75112 6.15425 7.44407 5.82365C7.43577 5.81517 7.41917 5.80669 7.41087 5.79822C7.51876 5.48456 7.56855 5.14548 7.48556 4.84878C7.41917 4.6199 7.2615 4.44189 7.04573 4.34864C7.10382 3.98413 7.04573 3.61114 6.87975 3.21271C6.87145 3.18728 6.87145 3.18728 6.86316 3.17881C6.86316 3.17033 6.86316 3.17033 6.86316 3.1449C6.85486 3.06013 6.85486 2.96688 6.84656 2.88211C6.82996 2.70409 6.80506 2.53455 6.74697 2.35653C6.66398 2.10222 6.5312 1.88182 6.38183 1.66989C6.39842 1.44101 6.33203 1.20365 6.16606 1.03411C6.08307 0.94934 5.99179 0.898478 5.8922 0.856093C5.85901 0.610258 5.75112 0.381378 5.54365 0.211837C5.19511 -0.067906 4.78017 -0.0509518 4.44822 0.14402C3.94199 -0.118768 3.29469 0.0592499 3.04573 0.610258C2.93784 0.847616 2.93784 1.08497 3.01253 1.30538C2.94614 1.37319 2.89635 1.44949 2.85486 1.54273C2.76357 1.78009 2.78847 2.04288 2.90465 2.25481C2.88805 2.3311 2.86315 2.40739 2.85486 2.49216C2.63909 2.45826 2.42332 2.44978 2.21585 2.49216C2.18266 2.47521 2.14946 2.45826 2.10797 2.44978C1.82581 2.36501 1.50216 2.41587 1.22 2.46673C0.680582 2.55998 -0.17419 2.85668 0.0332788 3.59418C0.0498763 3.67047 0.0830713 3.74677 0.116266 3.81458C0.116266 3.81458 0.124565 3.82306 0.124565 3.83154C0.124565 3.84002 0.124565 3.83154 0.124565 3.84002C0.124565 3.83154 0.124565 3.83154 0.124565 3.83154C0.124565 3.89936 0.0996689 3.97565 0.0996689 4.05194C0.0996689 4.34864 0.273943 4.63686 0.547802 4.74706C0.564399 4.86574 0.589295 4.97594 0.639088 5.08614C0.697179 5.2133 0.796764 5.3235 0.912947 5.39979C0.954441 5.42522 0.995934 5.42523 1.02913 5.44218C1.03743 5.46761 1.04573 5.48456 1.05403 5.51C1.12871 5.65411 1.2283 5.76431 1.36108 5.85755C1.45237 5.92537 1.56025 5.97623 1.67643 6.00166C1.69303 6.00166 1.70963 6.00166 1.72622 6.01014C1.75942 6.12034 1.81751 6.23902 1.9088 6.31532C2.04158 6.42552 2.17436 6.4679 2.31544 6.45943C2.34033 6.48486 2.36523 6.50181 2.39013 6.52724C2.52291 6.64592 2.68058 6.73917 2.85486 6.78155C3.12042 6.84937 3.37768 6.81546 3.64324 6.7646C3.65984 7.11216 3.85901 7.41733 4.12457 7.62926C4.5478 7.9853 5.01253 8.26504 5.46896 8.56174C5.46067 8.6126 5.45237 8.66346 5.43577 8.70584C5.34448 8.86691 5.2615 9.02797 5.17021 9.18056C5.13701 9.2399 5.12042 9.29924 5.11212 9.35858C5.09552 9.38401 5.07892 9.41792 5.05403 9.44335C4.87975 9.68071 4.70548 9.92654 4.5312 10.1809C4.50631 10.2063 4.47311 10.2317 4.45652 10.2571C4.40672 10.325 4.36523 10.4013 4.34033 10.4775C3.75942 11.4015 3.29469 12.4018 3.2449 13.5039C3.17851 15.1315 4.17436 16.3776 5.16191 17.5474C7.78432 20.6585 10.415 23.7611 13.0374 26.8722C13.9171 27.9148 15.1868 29.4746 16.7221 28.8728C17.8424 28.4319 18.0914 27.1604 17.9669 26.0838ZM15.4192 23.9222C15.4524 23.9052 15.4441 23.9137 15.4192 23.9222V23.9222ZM0.132864 3.79763C0.132864 3.78068 0.132864 3.7722 0.132864 3.79763V3.79763ZM0.141163 3.85697C0.15776 3.8824 0.182656 3.91631 0.141163 3.85697V3.85697ZM6.48971 6.73069C6.48141 6.67983 6.47311 6.63744 6.46481 6.58658C6.48971 6.60354 6.51461 6.61201 6.5395 6.61201C6.52291 6.6544 6.51461 6.68831 6.48971 6.73069ZM6.38183 5.42523C6.33203 5.5439 6.29884 5.67954 6.24075 5.78974C6.18266 5.62867 6.12457 5.46761 6.05818 5.30655C6.14946 5.36589 6.26564 5.40827 6.38183 5.42523ZM5.9254 4.41646C5.85901 4.50123 5.81751 4.59447 5.80091 4.68772C5.52705 4.08585 5.54365 3.43312 5.56025 2.78038C5.58515 2.07679 4.50631 2.07679 4.48971 2.78038C4.47311 3.39921 4.45652 4.04347 4.63909 4.64534C4.61419 4.6199 4.5893 4.59447 4.5561 4.57752C4.39013 4.5097 4.26564 4.40798 4.19925 4.23844C4.12457 4.03499 4.21585 3.86545 4.19096 3.662C4.15776 3.42464 3.98349 3.22119 3.93369 2.97536C3.8839 2.72104 3.9171 2.49216 3.99179 2.25481C4.01668 2.17004 4.00838 2.08527 3.99179 2.00049C4.31544 1.89029 4.43992 1.55121 4.32374 1.27147C4.44822 1.31385 4.581 1.31385 4.70548 1.26299C4.63909 1.61903 4.91295 2.01745 5.30299 1.9242C5.32789 2.01745 5.36938 2.10222 5.42747 2.17004C5.75112 2.54303 5.75112 2.88211 5.78432 3.33987C5.80921 3.72134 6.24075 4.01803 5.9254 4.41646ZM2.70548 5.44218C2.69718 5.41675 2.69718 5.38284 2.68058 5.34893C2.71378 5.38284 2.73867 5.39979 2.76357 5.4337C2.78017 5.45066 2.79676 5.47609 2.82166 5.49304C2.78017 5.47609 2.73867 5.45913 2.70548 5.44218ZM2.67228 3.5518C2.71378 3.56027 2.74697 3.57723 2.78847 3.5857C2.68888 3.56027 2.81336 3.60266 2.82996 3.61114C2.87145 3.63657 2.91295 3.662 2.94614 3.69591C2.98764 3.72981 3.03743 3.73829 3.07892 3.74677C3.08722 3.7722 3.09552 3.79763 3.11212 3.81458C3.09552 3.96717 3.10382 4.11128 3.12042 4.25539C2.92954 4.05194 2.74697 3.84849 2.5395 3.662C2.49801 3.61961 2.44822 3.59418 2.39842 3.56875C2.42332 3.56027 2.45652 3.5518 2.48141 3.54332C2.48971 3.54332 2.48141 3.54332 2.48971 3.54332C2.49801 3.54332 2.49801 3.54332 2.50631 3.54332C2.5478 3.54332 2.5893 3.54332 2.63079 3.54332C2.63909 3.5518 2.65569 3.5518 2.67228 3.5518ZM1.27809 3.56875C1.42747 3.52637 1.47726 3.51789 1.59344 3.50941C1.61834 3.50941 1.64324 3.50941 1.65983 3.50941C1.65983 3.50941 1.65983 3.50941 1.65983 3.51789C1.70963 3.56875 1.76772 3.60266 1.82581 3.62809C1.81751 3.63657 1.80091 3.64504 1.78432 3.662C1.59344 3.87392 1.56025 4.22996 1.78432 4.43341C1.95859 4.59447 2.11627 4.77249 2.28224 4.93356C2.20755 4.90812 2.13286 4.89117 2.04988 4.89117C2.02498 4.89117 2.00838 4.89965 1.98349 4.89965C1.93369 4.73011 1.84241 4.586 1.69303 4.49275C1.66813 4.46732 1.62664 4.45884 1.59344 4.44189C1.59344 4.41646 1.59344 4.39102 1.58515 4.37407C1.55195 4.13671 1.40257 3.91631 1.18681 3.80611C1.18681 3.73829 1.18681 3.67047 1.17021 3.60266C1.2117 3.59418 1.2449 3.57723 1.27809 3.56875ZM2.09967 5.99319C2.09137 5.99319 2.09137 5.99319 2.08307 5.98471C2.14946 5.96776 2.14946 5.97623 2.09967 5.99319ZM2.27394 6.41704C2.27394 6.41704 2.26564 6.41704 2.27394 6.41704C2.22415 6.37466 2.23245 6.38313 2.27394 6.41704ZM2.40672 6.45095C2.45652 6.44247 2.50631 6.42552 2.5644 6.40009C2.50631 6.43399 2.45652 6.45095 2.40672 6.45095ZM4.5893 6.94262C4.5644 6.95109 4.5312 6.95957 4.48141 6.95957C4.52291 6.95957 4.5561 6.95109 4.5893 6.94262ZM4.83826 6.82394C5.07062 6.59506 5.05403 6.14577 4.74697 5.93385C4.63909 5.85755 4.5395 5.76431 4.45652 5.66258C4.62249 5.56086 4.76357 5.38284 4.80506 5.20482C4.81336 5.17939 4.81336 5.14548 4.81336 5.12005C4.97934 5.49304 5.17021 5.84908 5.28639 6.23902C5.38598 6.56963 5.46896 6.93414 5.51046 7.30713C5.49386 7.29865 5.48556 7.29018 5.47726 7.2817C5.31959 7.17998 5.16191 7.07825 5.01253 6.95957C4.95444 6.91719 4.89635 6.8748 4.83826 6.82394Z" fill="#FF6800"/>
</g>
<defs>
<clipPath id="clip0">
<rect width="18" height="29" fill="white"/>
</clipPath>
</defs>
</svg>
