<?xml version="1.0"?>
<svg xmlns="http://www.w3.org/2000/svg" xmlns:xlink="http://www.w3.org/1999/xlink" xmlns:svgjs="http://svgjs.com/svgjs" version="1.1" width="512" height="512" x="0" y="0" viewBox="0 0 512 512" style="enable-background:new 0 0 512 512" xml:space="preserve" class=""><g><path xmlns="http://www.w3.org/2000/svg" d="m363.602 182.062c-12.993-12.902-27.889-23.173-44.044-30.574 6.103-4.018 12.317-9.015 18.573-15.271 32.944-32.943 42.761-72.813 22.836-92.737-13.714-13.715-36.827-13.569-61.164-.783-8.169-26.25-24.408-42.697-43.803-42.697s-35.634 16.446-43.803 42.694c-24.336-12.784-47.45-12.931-61.164.784-19.926 19.926-10.109 59.794 22.835 92.737 6.307 6.307 12.572 11.334 18.722 15.368-52.467 24.15-89.143 77.233-89.305 138.433-.084 31.849 9.542 62.396 27.836 88.336 17.878 25.349 42.633 44.447 71.589 55.229 5 1.862 9.073 5.884 11.175 11.033l27.513 67.386h29.204l27.527-67.412c2.096-5.134 6.157-9.143 11.141-10.998 28.896-10.756 53.618-29.8 71.492-55.073 18.287-25.856 27.953-56.317 27.953-88.088-.001-40.995-16.022-79.481-45.113-108.367zm-191.068-101.506c-2.686-8.411-2.031-14.12-.287-15.864.949-.949 2.882-1.51 5.597-1.51 7.365 0 20.472 4.131 35.203 15.853l21.183 16.856 3.061-26.898c2.913-25.601 13.728-38.993 18.709-38.993s15.796 13.392 18.708 38.992l3.06 26.898 21.184-16.856c20.162-16.043 37.28-17.864 40.801-14.343 1.744 1.744 2.398 7.453-.288 15.864-3.546 11.108-11.765 23.664-22.548 34.447-21.082 21.082-38.547 22.711-60.918 22.711s-39.836-1.629-60.918-22.711c-10.782-10.782-19.001-23.338-22.547-34.446zm183.734 280.638c-14.375 20.326-34.246 35.638-57.464 44.28-12.822 4.774-23.191 14.896-28.448 27.772l-14.355 35.154-14.34-35.124c-5.263-12.891-15.643-23.026-28.48-27.807-17.92-6.673-33.829-17.33-46.77-31.185h55.16v-30h-75.868c-5.979-12.206-9.851-25.298-11.498-38.856h67.938v-30h-67.931c1.698-13.772 5.702-26.858 11.613-38.857h75.747v-30h-54.95c22.234-23.679 53.695-38.609 88.492-38.854.298-.003.594-.004.891-.004 32.622 0 63.297 12.635 86.459 35.635 23.376 23.213 36.25 54.139 36.25 87.08 0 25.533-7.761 50.003-22.446 70.766z" fill="#009b00" data-original="#000000" style=""/></g></svg>
