<svg width="20" height="21" viewBox="0 0 20 21" fill="none" xmlns="http://www.w3.org/2000/svg">
<path d="M10 3C11.38 3 12.51 4.13 12.51 5.51C12.51 6.89 11.38 8.03 10 8.03C8.62 8.03 7.49 6.9 7.49 5.52C7.49 4.14 8.62 3 10 3ZM10 0C6.97 0 4.5 2.47 4.5 5.51C4.5 8.55 6.97 11.02 10 11.02C13.03 11.02 15.5 8.55 15.5 5.51C15.5 2.47 13.03 0 10 0Z" fill="#FF6800"/>
<path d="M20 21.0002H17.01V20.5202C17.01 17.7102 14.73 15.4302 11.94 15.4302H8.06C5.26 15.4302 2.99 17.7102 2.99 20.5202V21.0002H0V20.5202C0 16.0602 3.62 12.4302 8.06 12.4302H11.93C16.38 12.4302 19.99 16.0602 19.99 20.5202V21.0002H20Z" fill="#FF6800"/>
</svg>
