<svg width="30" height="19" viewBox="0 0 30 19" fill="none" xmlns="http://www.w3.org/2000/svg">
<g clip-path="url(#clip0)">
<path d="M17.8602 10.07C13.3602 8.17 8.7502 11.12 7.5602 15.57C7.0402 17.5 8.5702 19.09 10.2602 18.99C11.8602 18.89 13.4702 18.97 15.0702 18.97C16.6902 18.97 18.3202 18.91 19.9402 18.99C21.9602 19.08 23.0402 17.04 22.6102 15.59C21.8602 13.05 20.3302 11.11 17.8602 10.07ZM19.8002 17.99C18.2102 17.99 16.6302 17.99 15.0402 17.99C13.4502 17.99 11.8702 17.99 10.2802 17.99C8.9702 17.99 8.1402 16.97 8.5402 15.72C9.3602 13.12 11.0302 11.31 13.7302 10.7C16.3402 10.11 18.4902 11.07 20.1802 13.08C20.7902 13.81 21.2502 14.63 21.5502 15.54C22.0002 16.86 21.1902 17.99 19.8002 17.99Z" fill="#FF6800"/>
<path d="M15.0402 8.84C17.4802 8.83 19.4902 6.83 19.4902 4.43C19.4802 1.96 17.4902 -0.0100002 15.0202 -2.44316e-07C12.5902 0.00999976 10.6102 1.97 10.6202 4.37C10.6302 6.87 12.5802 8.84 15.0402 8.84ZM15.0402 0.98C16.9302 0.98 18.4502 2.51 18.4602 4.43C18.4702 6.27 16.9502 7.81 15.1102 7.82C13.1402 7.83 11.6202 6.33 11.6102 4.35C11.5902 2.54 13.1802 0.98 15.0402 0.98Z" fill="#FF6800"/>
<path d="M29.72 12.5C29.55 12.02 29.31 11.55 29.01 11.1C28.04 9.63 26.54 8.69 24.91 8.53C23.36 8.37 21.88 8.92 20.75 10.05C20.74 10.06 20.7 10.09 20.67 10.11C20.57 10.17 20.44 10.26 20.43 10.4C20.42 10.5 20.47 10.59 20.59 10.69C20.79 10.86 21.01 11.05 21.38 10.71C22.6 9.59 24.06 9.18 25.5 9.56C27.05 9.97 28.35 11.28 28.9 12.98C29.02 13.36 28.95 13.78 28.73 14.08C28.51 14.36 28.17 14.51 27.77 14.49C26.8 14.44 25.81 14.45 24.85 14.46C24.43 14.46 24.02 14.47 23.6 14.47H23.47L23.49 14.59C23.62 15.37 23.66 15.41 24.37 15.41C24.7 15.41 25.04 15.41 25.37 15.41C25.72 15.41 26.07 15.41 26.42 15.41C26.86 15.41 27.3 15.41 27.74 15.4C28.52 15.39 29.17 15.08 29.55 14.53C29.92 13.98 29.98 13.23 29.72 12.5Z" fill="#FF6800"/>
<path d="M5.92012 14.97C5.89012 14.97 5.86012 14.98 5.83012 14.98C5.51012 14.98 5.19012 14.97 4.87012 14.97C3.97012 14.96 3.04012 14.94 2.13012 14.99C1.73012 15.01 1.38012 14.86 1.16012 14.57C0.940115 14.28 0.870115 13.89 0.980115 13.54C1.57012 11.76 2.68012 10.63 4.29012 10.19C5.70012 9.8 7.01012 10.12 8.17012 11.14C8.51012 11.44 8.74012 11.34 8.97012 11.09C9.07012 10.99 9.11012 10.89 9.10012 10.8C9.09012 10.67 8.98011 10.6 8.90012 10.54C8.86012 10.51 8.82012 10.48 8.80012 10.46C8.72012 10.34 8.60011 10.26 8.49012 10.19L8.45012 10.16C6.94011 9.13 5.22012 8.89 3.62012 9.47C1.91012 10.09 0.620115 11.54 0.0801153 13.46C-0.0798847 14.01 0.0201153 14.58 0.350115 15.04C0.700115 15.53 1.25012 15.84 1.87012 15.88C2.33012 15.91 2.79012 15.9 3.24012 15.9C3.41012 15.9 3.58012 15.89 3.75012 15.89V15.9H3.86012C4.05012 15.9 4.25012 15.9 4.44012 15.9C4.90012 15.9 5.37012 15.89 5.83012 15.91C5.84012 15.91 5.85012 15.91 5.86012 15.91C6.30012 15.91 6.33012 15.59 6.34012 15.34C6.35012 15.2 6.32012 15.1 6.25012 15.04C6.16012 14.95 6.03012 14.96 5.92012 14.97Z" fill="#FF6800"/>
<path d="M24.48 7.93C24.49 7.93 24.49 7.93 24.48 7.93C26.25 7.93 27.69 6.49 27.69 4.73C27.69 3.87 27.36 3.07 26.76 2.46C26.15 1.85 25.33 1.51 24.46 1.51H24.45C22.69 1.51 21.26 2.95 21.25 4.71C21.25 5.58 21.58 6.39 22.18 6.99C22.8 7.6 23.61 7.93 24.48 7.93ZM22.17 4.74C22.17 4.13 22.41 3.56 22.84 3.13C23.27 2.7 23.85 2.46 24.47 2.46C24.48 2.46 24.48 2.46 24.49 2.46C25.77 2.47 26.77 3.48 26.77 4.77C26.77 5.38 26.53 5.96 26.09 6.39C25.65 6.82 25.08 7.06 24.46 7.05C23.19 7.05 22.17 6.01 22.17 4.74Z" fill="#FF6800"/>
<path d="M5.35 8.59C6.2 8.59 6.99 8.27 7.57 7.68C8.15 7.1 8.47 6.31 8.47 5.47C8.47 4.63 8.15 3.85 7.56 3.27C6.98 2.69 6.19 2.37 5.34 2.37H5.33C3.6 2.38 2.25 3.76 2.25 5.53C2.25 7.27 3.59 8.59 5.35 8.59ZM6.95 3.91C7.38 4.34 7.61 4.91 7.6 5.51C7.58 6.75 6.59 7.71 5.35 7.71C5.35 7.71 5.35 7.71 5.34 7.71C4.1 7.71 3.12 6.72 3.13 5.47C3.13 4.22 4.11 3.24 5.36 3.24C5.95 3.25 6.52 3.48 6.95 3.91Z" fill="#FF6800"/>
</g>
<defs>
<clipPath id="clip0">
<rect width="29.88" height="19" fill="white"/>
</clipPath>
</defs>
</svg>
