<svg width="6" height="25" viewBox="0 0 6 25" fill="none" xmlns="http://www.w3.org/2000/svg">
<g clip-path="url(#clip0)">
<path d="M6 2.85456C6 3.79607 5.74447 4.50721 5.23339 4.98798C4.72232 5.46875 3.96593 5.70913 2.98467 5.70913C2.03407 5.70913 1.29813 5.45873 0.787054 4.96795C0.265759 4.47716 0.0102229 3.76602 0.0102229 2.85456C0.010223 1.97315 0.275981 1.27203 0.797276 0.761215C1.31857 0.250398 2.05452 -2.25227e-06 2.99489 -2.17006e-06C3.95571 -2.08607e-06 4.70188 0.250399 5.22317 0.751202C5.73424 1.252 6 1.95312 6 2.85456ZM0.879047 8.59375L5.05963 8.59375L5.92845 25L-4.76837e-07 25L0.879047 8.59375Z" fill="#FF6800"/>
</g>
<defs>
<clipPath id="clip0">
<rect width="6" height="25" fill="white" transform="translate(6 25) rotate(-180)"/>
</clipPath>
</defs>
</svg>
