<svg width="28" height="28" viewBox="0 0 28 28" fill="none" xmlns="http://www.w3.org/2000/svg">
<g clip-path="url(#clip0)">
<path d="M14.1713 18.6265C13.5463 18.6265 13.0827 18.7877 12.7602 19.0901C12.4376 19.3925 12.2764 19.8561 12.2764 20.4609C12.2764 21.0455 12.4376 21.489 12.7803 21.8115C13.1029 22.134 13.5867 22.2953 14.1914 22.2953C14.776 22.2953 15.2396 22.134 15.5622 21.8115C15.8847 21.489 16.0661 21.0455 16.0661 20.4609C16.0661 19.8763 15.9049 19.4126 15.5823 19.1103C15.2195 18.7877 14.7558 18.6265 14.1713 18.6265Z" fill="#FF0303"/>
<path d="M12.8612 16.7718H15.5019L16.0462 6.229H12.3169L12.8612 16.7718Z" fill="#FF0303"/>
<path d="M14.0101 0C6.28942 0 0 6.28942 0 14.0101C0 21.7307 6.28942 28.0202 14.0101 28.0202C21.7307 28.0202 28.0202 21.7307 28.0202 14.0101C28.0202 6.28942 21.7307 0 14.0101 0ZM14.0101 23.9683C8.48668 23.9683 4.03168 19.5133 4.03168 14.0101C4.03168 8.48668 8.48668 4.03168 14.0101 4.03168C19.5133 4.03168 23.9885 8.48668 23.9885 14.0101C23.9683 19.5133 19.5133 23.9683 14.0101 23.9683Z" fill="#FF0303"/>
</g>
<defs>
<clipPath id="clip0">
<rect width="28" height="28" fill="white"/>
</clipPath>
</defs>
</svg>
