<svg width="437" height="182" viewBox="0 0 437 182" fill="none" xmlns="http://www.w3.org/2000/svg">
<path d="M435.431 124.582L431.506 115.306L428.186 110.438L422.958 105.846L418.373 101.254L411.183 97.4338L404.488 95.5235L398.857 94.1826L391.318 94.0173L384.146 95.4868L377.378 98.6828L373.709 102.558L369.839 107.389L366.079 114.534L363.969 122.855L364.354 129.449L367.014 135.529L370.939 142.472L377.286 144.842L384.788 145.815L390.988 144.07L395.922 141.829L399.205 135.933L400.342 130.68L398.141 125.904L394.601 124.269L394.674 122.433L399.664 121.128L403.864 123.057L407.367 126.382L409.11 131.286L409.165 139.221L406.982 144.107L402.525 150.425L396.545 152.777L390.749 155.899L381.101 156.524L374.828 155.587L368.39 154.687L362.282 149.838L356.926 144.474L352.468 138.743L350.689 130.955L350.176 124.067L351.698 114.755L353.807 107.738L359.622 98.646L366.61 92.7316L374.149 87.3681L382.99 84.7782L392.785 83.9149L399.187 85.917L406.157 86.4864L413.329 89.9212L421.161 91.9234L423.545 90.5825L422.885 87.2395L416.961 84.3741L409.99 79.9658L401.516 76.9902L393.225 75.833L385.522 76.6779L392.492 64.0591L396.179 63.5999L402.342 60.3488L408.119 55.6098L411.054 48.5198L414.649 40.7501L414.338 29.9681L415.768 22.2352L413.145 12.8492L412.21 8L410.082 8.36736L410.064 13.5471L407.056 20.1412L397.536 27.966L394.913 31.511L380.422 41.9992L378.075 48.7402L380.276 61.6896L385.943 66.9429L380.679 76.8432H372.425L364.978 78.2392L356.1 81.3434L350.469 85.0905L343.407 89.6641L338.528 96.6623L333.282 103.826C333.282 103.826 329.944 112.238 329.852 112.624C329.761 113.01 328.513 121.275 328.513 121.275V130.129L330.237 140.176L333.998 148.57L336.822 156.138L340.748 159.573L344.379 164.348L350.432 170.226L356.797 175.737L363.676 177.886L370.939 180.329L378.772 181.578L388.255 180.567L395.775 179.484L405.9 176.986L413.255 174.12L419.84 169.546L426.132 164.201L429.525 157.111L433.12 148.864L435.23 139.882L436.092 133.013L435.431 124.582Z" fill="#F2F2F2"/>
<path d="M43.1598 105.35C43.1598 112.606 41.2522 118.281 37.4186 122.378C33.6034 126.474 28.2841 128.512 21.4607 128.512C17.1869 128.512 13.4267 127.576 10.1617 125.702C6.89676 123.829 4.38385 121.129 2.64131 117.62C0.89878 114.112 0 110.034 0 105.35C0 98.0767 1.88927 92.401 5.68616 88.36C9.48305 84.3191 14.8207 82.2986 21.6991 82.2986C25.9729 82.2986 29.7331 83.2354 32.9981 85.0905C36.263 86.9457 38.7759 89.6274 40.5185 93.099C42.2793 96.6073 43.1598 100.685 43.1598 105.35ZM12.3812 105.35C12.3812 109.759 13.0965 113.102 14.5456 115.361C15.9946 117.62 18.3424 118.741 21.6074 118.741C24.854 118.741 27.1835 117.62 28.5959 115.379C30.0082 113.138 30.7236 109.795 30.7236 105.35C30.7236 100.942 30.0082 97.6359 28.5775 95.4317C27.1468 93.2275 24.799 92.1255 21.534 92.1255C18.2874 92.1255 15.9579 93.2275 14.5272 95.4133C13.0965 97.5991 12.3812 100.924 12.3812 105.35Z" fill="#F2F2F2"/>
<path d="M78.0288 82.3169C79.6796 82.3169 81.0369 82.4455 82.1375 82.6843L81.2204 94.0908C80.2299 93.8336 79.0376 93.6867 77.6436 93.6867C73.7733 93.6867 70.7468 94.6786 68.5824 96.6807C66.418 98.6644 65.3358 101.456 65.3358 105.056V127.741H53.1931V83.1435H62.3827L64.1802 90.6376H64.7855C66.1612 88.1396 68.0322 86.1191 70.38 84.5945C72.7095 83.07 75.2774 82.3169 78.0288 82.3169Z" fill="#F2F2F2"/>
<path d="M128.947 83.1435V89.3151L121.977 91.1152C123.243 93.0989 123.885 95.3398 123.885 97.8195C123.885 102.595 122.216 106.324 118.896 109.006C115.557 111.669 110.935 113.01 105.029 113.01L102.846 112.881L101.049 112.698C99.8012 113.653 99.1776 114.718 99.1776 115.894C99.1776 117.657 101.397 118.52 105.873 118.52H113.43C118.309 118.52 122.032 119.567 124.6 121.661C127.168 123.755 128.434 126.841 128.434 130.919C128.434 136.135 126.269 140.176 121.922 143.041C117.575 145.907 111.357 147.34 103.231 147.34C97.0132 147.34 92.2808 146.256 88.9975 144.088C85.7142 141.921 84.0818 138.89 84.0818 134.978C84.0818 132.296 84.9255 130.055 86.5947 128.237C88.2638 126.437 90.7217 125.133 93.9683 124.361C92.721 123.829 91.6388 122.965 90.7034 121.753C89.7679 120.541 89.3094 119.255 89.3094 117.914C89.3094 116.206 89.8046 114.792 90.7768 113.671C91.7672 112.532 93.1796 111.43 95.0322 110.346C92.7027 109.336 90.8501 107.72 89.4744 105.479C88.0988 103.256 87.4201 100.611 87.4201 97.5807C87.4201 92.7132 88.9975 88.9477 92.1524 86.3028C95.3073 83.6394 99.8196 82.3169 105.689 82.3169C106.936 82.3169 108.422 82.4271 110.128 82.6475C111.834 82.8679 112.934 83.0332 113.411 83.1435H128.947V83.1435ZM94.592 134.023C94.592 135.694 95.399 137.017 96.9948 137.972C98.609 138.927 100.847 139.405 103.745 139.405C108.092 139.405 111.504 138.798 113.98 137.605C116.456 136.411 117.685 134.776 117.685 132.7C117.685 131.029 116.951 129.872 115.502 129.229C114.035 128.586 111.779 128.274 108.734 128.274H102.443C100.205 128.274 98.3522 128.806 96.8481 129.853C95.344 130.9 94.592 132.296 94.592 134.023ZM99.0125 97.746C99.0125 100.171 99.5628 102.081 100.663 103.495C101.764 104.91 103.451 105.608 105.708 105.608C107.982 105.608 109.669 104.91 110.715 103.495C111.779 102.081 112.311 100.171 112.311 97.746C112.311 92.3826 110.11 89.7008 105.708 89.7008C101.232 89.6825 99.0125 92.3826 99.0125 97.746Z" fill="#F2F2F2"/>
<path d="M164.55 127.723L162.202 121.661H161.89C159.854 124.233 157.745 126.033 155.581 127.025C153.416 128.017 150.591 128.512 147.125 128.512C142.851 128.512 139.494 127.282 137.036 124.839C134.578 122.396 133.35 118.906 133.35 114.387C133.35 109.649 135 106.177 138.302 103.918C141.604 101.677 146.593 100.428 153.251 100.189L160.973 99.9502V98.0032C160.973 93.4847 158.662 91.2254 154.04 91.2254C150.481 91.2254 146.299 92.3091 141.494 94.4582L137.477 86.2477C142.594 83.566 148.28 82.2251 154.517 82.2251C160.496 82.2251 165.064 83.5292 168.255 86.1375C171.447 88.7457 173.024 92.6948 173.024 98.0216V127.723H164.55ZM160.955 107.077L156.259 107.242C152.738 107.353 150.096 107.995 148.372 109.153C146.648 110.31 145.786 112.11 145.786 114.498C145.786 117.932 147.748 119.641 151.674 119.641C154.48 119.641 156.736 118.833 158.424 117.216C160.111 115.6 160.955 113.451 160.955 110.751V107.077Z" fill="#F2F2F2"/>
<path d="M226.603 127.723H214.46V101.695C214.46 98.4808 213.891 96.0746 212.754 94.4582C211.617 92.8418 209.801 92.052 207.306 92.052C203.913 92.052 201.455 93.1908 199.933 95.4684C198.429 97.7461 197.658 101.512 197.658 106.765V127.741H185.516V83.1435H194.797L196.429 88.8376H197.108C198.465 86.6885 200.318 85.0538 202.702 83.9517C205.069 82.8496 207.783 82.2986 210.81 82.2986C215.982 82.2986 219.908 83.6946 222.586 86.5049C225.264 89.3152 226.603 93.3561 226.603 98.6461V127.723Z" fill="#F2F2F2"/>
<path d="M238.599 71.6267C238.599 67.6592 240.8 65.6938 245.202 65.6938C249.604 65.6938 251.805 67.6776 251.805 71.6267C251.805 73.5186 251.255 74.9881 250.154 76.035C249.054 77.082 247.403 77.6147 245.202 77.6147C240.8 77.6147 238.599 75.6126 238.599 71.6267ZM251.255 127.723H239.112V83.1434H251.255V127.723Z" fill="#F2F2F2"/>
<path d="M282.07 128.512C268.222 128.512 261.288 120.89 261.288 105.663C261.288 98.0951 263.177 92.3091 266.938 88.3049C270.698 84.3007 276.109 82.2986 283.134 82.2986C288.288 82.2986 292.892 83.3088 296.983 85.3293L293.406 94.7337C291.498 93.9623 289.719 93.3377 288.068 92.8418C286.417 92.3459 284.785 92.1071 283.134 92.1071C276.824 92.1071 273.651 96.6073 273.651 105.589C273.651 114.314 276.806 118.667 283.134 118.667C285.463 118.667 287.628 118.355 289.627 117.73C291.627 117.106 293.608 116.132 295.607 114.792V125.206C293.644 126.455 291.663 127.319 289.646 127.796C287.646 128.274 285.115 128.512 282.07 128.512Z" fill="#F2F2F2"/>
<path d="M193.476 151.84C193.476 151.032 193.678 150.444 194.081 150.058C194.485 149.672 194.98 149.489 195.567 149.489C196.136 149.489 196.631 149.672 197.035 150.058C197.438 150.444 197.658 151.032 197.658 151.822C197.658 152.611 197.456 153.217 197.035 153.603C196.631 153.989 196.136 154.191 195.567 154.191C194.962 154.191 194.467 153.989 194.081 153.603C193.678 153.236 193.476 152.648 193.476 151.84ZM197.31 181.578H193.77V158.195H197.31V181.578Z" fill="#F2F2F2"/>
<path d="M220.806 181.578V166.442C220.806 164.532 220.366 163.118 219.504 162.181C218.642 161.244 217.285 160.767 215.432 160.767C212.993 160.767 211.195 161.428 210.058 162.75C208.921 164.073 208.352 166.259 208.352 169.308V181.578H204.812V158.195H207.692L208.26 161.391H208.425C209.159 160.234 210.168 159.352 211.47 158.71C212.772 158.085 214.24 157.754 215.836 157.754C218.642 157.754 220.77 158.434 222.182 159.793C223.594 161.152 224.31 163.32 224.31 166.314V181.578H220.806Z" fill="#F2F2F2"/>
<path d="M265.984 181.578H261.728L250.374 166.442L247.109 169.344V181.578H243.496V150.37H247.109V165.836L261.233 150.37H265.507L252.979 163.926L265.984 181.578Z" fill="#F2F2F2"/>
<path d="M283.978 165.23H294.561V180.402C292.911 180.935 291.241 181.321 289.536 181.596C287.83 181.872 285.849 182 283.611 182C278.897 182 275.228 180.604 272.587 177.794C269.964 174.984 268.643 171.053 268.643 165.983C268.643 162.732 269.285 159.903 270.588 157.461C271.89 155.018 273.761 153.162 276.201 151.877C278.64 150.591 281.502 149.948 284.785 149.948C288.105 149.948 291.205 150.554 294.084 151.785L292.672 154.981C289.866 153.787 287.151 153.181 284.546 153.181C280.75 153.181 277.796 154.32 275.669 156.579C273.541 158.838 272.477 161.979 272.477 166.002C272.477 170.208 273.504 173.404 275.559 175.59C277.613 177.757 280.621 178.859 284.601 178.859C286.766 178.859 288.875 178.602 290.93 178.106V168.5H283.959V165.23H283.978Z" fill="#F2F2F2"/>
<path d="M17.7539 42C17.5195 41.5312 17.3291 40.6963 17.1826 39.4951C15.293 41.458 13.0371 42.4395 10.415 42.4395C8.07129 42.4395 6.14502 41.7803 4.63623 40.4619C3.14209 39.1289 2.39502 37.4443 2.39502 35.4082C2.39502 32.9326 3.33252 31.0137 5.20752 29.6514C7.09717 28.2744 9.74854 27.5859 13.1616 27.5859H17.1167V25.7183C17.1167 24.2974 16.6919 23.1694 15.8423 22.3345C14.9927 21.4849 13.7402 21.0601 12.085 21.0601C10.6348 21.0601 9.41895 21.4263 8.4375 22.1587C7.45605 22.8911 6.96533 23.7773 6.96533 24.8174H2.87842C2.87842 23.6309 3.2959 22.4883 4.13086 21.3896C4.98047 20.2764 6.12305 19.3975 7.55859 18.7529C9.00879 18.1084 10.5981 17.7861 12.3267 17.7861C15.0659 17.7861 17.2119 18.4746 18.7646 19.8516C20.3174 21.2139 21.123 23.0962 21.1816 25.4985V36.4409C21.1816 38.6235 21.46 40.3594 22.0166 41.6484V42H17.7539ZM11.0083 38.9019C12.2827 38.9019 13.4912 38.5723 14.6338 37.9131C15.7764 37.2539 16.604 36.397 17.1167 35.3423V30.4644H13.9307C8.9502 30.4644 6.45996 31.9219 6.45996 34.8369C6.45996 36.1113 6.88477 37.1074 7.73438 37.8252C8.58398 38.543 9.67529 38.9019 11.0083 38.9019ZM26.5649 29.915C26.5649 26.2676 27.4292 23.3379 29.1577 21.126C30.8862 18.8994 33.1494 17.7861 35.9473 17.7861C38.7305 17.7861 40.9351 18.7383 42.561 20.6426V8.25H46.626V42H42.8906L42.6929 39.4512C41.0669 41.4434 38.8037 42.4395 35.9033 42.4395C33.1494 42.4395 30.9009 41.3115 29.1577 39.0557C27.4292 36.7998 26.5649 33.8555 26.5649 30.2227V29.915ZM30.6299 30.3765C30.6299 33.0718 31.1865 35.1812 32.2998 36.7046C33.4131 38.228 34.9512 38.9897 36.9141 38.9897C39.4922 38.9897 41.3745 37.8325 42.561 35.5181V24.5977C41.3452 22.3564 39.4775 21.2358 36.958 21.2358C34.9658 21.2358 33.4131 22.0049 32.2998 23.543C31.1865 25.0811 30.6299 27.3589 30.6299 30.3765ZM56.7773 18.2256L56.8872 20.8623C58.6304 18.8115 60.9814 17.7861 63.9404 17.7861C67.2656 17.7861 69.5288 19.0605 70.73 21.6094C71.521 20.4668 72.5464 19.5439 73.8062 18.8408C75.0806 18.1377 76.582 17.7861 78.3105 17.7861C83.5254 17.7861 86.1768 20.5474 86.2646 26.0698V42H82.1997V26.3115C82.1997 24.6123 81.8115 23.3452 81.0352 22.5103C80.2588 21.6606 78.9551 21.2358 77.124 21.2358C75.6152 21.2358 74.3628 21.6899 73.3667 22.5981C72.3706 23.4917 71.792 24.7002 71.6309 26.2236V42H67.5439V26.4214C67.5439 22.9644 65.8521 21.2358 62.4683 21.2358C59.8022 21.2358 57.9785 22.3711 56.9971 24.6416V42H52.9321V18.2256H56.7773ZM96.8335 42H92.7686V18.2256H96.8335V42ZM92.439 11.9194C92.439 11.2603 92.6367 10.7036 93.0322 10.2495C93.4424 9.79541 94.043 9.56836 94.834 9.56836C95.625 9.56836 96.2256 9.79541 96.6357 10.2495C97.0459 10.7036 97.251 11.2603 97.251 11.9194C97.251 12.5786 97.0459 13.1279 96.6357 13.5674C96.2256 14.0068 95.625 14.2266 94.834 14.2266C94.043 14.2266 93.4424 14.0068 93.0322 13.5674C92.6367 13.1279 92.439 12.5786 92.439 11.9194ZM107.205 18.2256L107.336 21.2139C109.153 18.9287 111.526 17.7861 114.456 17.7861C119.48 17.7861 122.014 20.6206 122.058 26.2896V42H117.993V26.2676C117.979 24.5537 117.583 23.2866 116.807 22.4663C116.045 21.646 114.851 21.2358 113.225 21.2358C111.907 21.2358 110.75 21.5874 109.753 22.2905C108.757 22.9937 107.981 23.9165 107.424 25.0591V42H103.359V18.2256H107.205ZM159.434 30.3765C159.434 33.9946 158.606 36.9097 156.951 39.1216C155.295 41.3335 153.054 42.4395 150.227 42.4395C147.341 42.4395 145.071 41.5239 143.416 39.6929V51.1406H139.351V18.2256H143.064L143.262 20.8623C144.917 18.8115 147.217 17.7861 150.161 17.7861C153.018 17.7861 155.273 18.8628 156.929 21.0161C158.599 23.1694 159.434 26.165 159.434 30.0029V30.3765ZM155.369 29.915C155.369 27.2344 154.797 25.1177 153.655 23.5649C152.512 22.0122 150.945 21.2358 148.953 21.2358C146.492 21.2358 144.646 22.3271 143.416 24.5098V35.8696C144.631 38.0376 146.492 39.1216 148.997 39.1216C150.945 39.1216 152.49 38.3525 153.633 36.8145C154.79 35.2617 155.369 32.9619 155.369 29.915ZM179.297 42C179.062 41.5312 178.872 40.6963 178.726 39.4951C176.836 41.458 174.58 42.4395 171.958 42.4395C169.614 42.4395 167.688 41.7803 166.179 40.4619C164.685 39.1289 163.938 37.4443 163.938 35.4082C163.938 32.9326 164.875 31.0137 166.75 29.6514C168.64 28.2744 171.292 27.5859 174.705 27.5859H178.66V25.7183C178.66 24.2974 178.235 23.1694 177.385 22.3345C176.536 21.4849 175.283 21.0601 173.628 21.0601C172.178 21.0601 170.962 21.4263 169.98 22.1587C168.999 22.8911 168.508 23.7773 168.508 24.8174H164.421C164.421 23.6309 164.839 22.4883 165.674 21.3896C166.523 20.2764 167.666 19.3975 169.102 18.7529C170.552 18.1084 172.141 17.7861 173.87 17.7861C176.609 17.7861 178.755 18.4746 180.308 19.8516C181.86 21.2139 182.666 23.0962 182.725 25.4985V36.4409C182.725 38.6235 183.003 40.3594 183.56 41.6484V42H179.297ZM172.551 38.9019C173.826 38.9019 175.034 38.5723 176.177 37.9131C177.319 37.2539 178.147 36.397 178.66 35.3423V30.4644H175.474C170.493 30.4644 168.003 31.9219 168.003 34.8369C168.003 36.1113 168.428 37.1074 169.277 37.8252C170.127 38.543 171.218 38.9019 172.551 38.9019ZM192.942 18.2256L193.074 21.2139C194.89 18.9287 197.263 17.7861 200.193 17.7861C205.217 17.7861 207.751 20.6206 207.795 26.2896V42H203.73V26.2676C203.716 24.5537 203.32 23.2866 202.544 22.4663C201.782 21.646 200.588 21.2358 198.962 21.2358C197.644 21.2358 196.487 21.5874 195.491 22.2905C194.495 22.9937 193.718 23.9165 193.162 25.0591V42H189.097V18.2256H192.942ZM223.792 42.4395C220.569 42.4395 217.947 41.3848 215.925 39.2754C213.904 37.1514 212.893 34.3169 212.893 30.772V30.0249C212.893 27.6665 213.34 25.5645 214.233 23.7188C215.142 21.8584 216.401 20.4082 218.013 19.3682C219.639 18.3135 221.396 17.7861 223.286 17.7861C226.377 17.7861 228.779 18.8042 230.493 20.8403C232.207 22.8765 233.064 25.7915 233.064 29.5854V31.2773H216.958C217.017 33.6211 217.698 35.5181 219.001 36.9683C220.32 38.4038 221.99 39.1216 224.011 39.1216C225.447 39.1216 226.663 38.8286 227.659 38.2427C228.655 37.6567 229.526 36.8804 230.273 35.9136L232.756 37.8472C230.764 40.9087 227.776 42.4395 223.792 42.4395ZM223.286 21.126C221.646 21.126 220.269 21.7266 219.155 22.9277C218.042 24.1143 217.354 25.7842 217.09 27.9375H228.999V27.6299C228.882 25.5645 228.325 23.9678 227.329 22.8398C226.333 21.6973 224.985 21.126 223.286 21.126ZM242.205 42H238.14V8.25H242.205V42ZM258.816 29.8931C258.816 27.564 259.27 25.4692 260.178 23.6089C261.101 21.7485 262.375 20.313 264.001 19.3022C265.642 18.2915 267.51 17.7861 269.604 17.7861C272.842 17.7861 275.457 18.9067 277.449 21.1479C279.456 23.3892 280.459 26.3701 280.459 30.0908V30.3765C280.459 32.6909 280.012 34.771 279.119 36.6167C278.24 38.4478 276.973 39.876 275.317 40.9014C273.677 41.9268 271.787 42.4395 269.648 42.4395C266.426 42.4395 263.811 41.3188 261.804 39.0776C259.812 36.8364 258.816 33.8701 258.816 30.1787V29.8931ZM262.903 30.3765C262.903 33.0132 263.511 35.1299 264.727 36.7266C265.957 38.3232 267.598 39.1216 269.648 39.1216C271.714 39.1216 273.354 38.3159 274.57 36.7046C275.786 35.0786 276.394 32.8081 276.394 29.8931C276.394 27.2856 275.771 25.1763 274.526 23.5649C273.296 21.939 271.655 21.126 269.604 21.126C267.598 21.126 265.979 21.9243 264.749 23.521C263.518 25.1177 262.903 27.4028 262.903 30.3765ZM287.556 42V21.3677H283.799V18.2256H287.556V15.7866C287.556 13.2378 288.237 11.2676 289.6 9.87598C290.962 8.48438 292.888 7.78857 295.378 7.78857C296.316 7.78857 297.246 7.91309 298.169 8.16211L297.949 11.458C297.261 11.3262 296.528 11.2603 295.752 11.2603C294.434 11.2603 293.416 11.6484 292.698 12.4248C291.98 13.1865 291.621 14.2852 291.621 15.7207V18.2256H296.697V21.3677H291.621V42H287.556Z" fill="#F2F2F2"/>
</svg>
