<svg width="124" height="51" viewBox="0 0 124 51" fill="none" xmlns="http://www.w3.org/2000/svg">
<path d="M123.812 33.9496L122.696 31.2484L121.752 29.8309L120.266 28.4937L118.962 27.1565L116.917 26.0439L115.014 25.4876L113.412 25.0971L111.269 25.049L109.229 25.4769L107.305 26.4076L106.262 27.5362L105.161 28.943L104.092 31.0237L103.492 33.4468L103.602 35.3671L104.358 37.1376L105.474 39.1595L107.279 39.8495L109.412 40.133L111.175 39.6248L112.578 38.9722L113.511 37.2552L113.835 35.7254L113.209 34.3347L112.202 33.8587L112.223 33.3238L113.642 32.944L114.836 33.5056L115.832 34.4738L116.328 35.902L116.343 38.2127L115.723 39.6355L114.455 41.4755L112.755 42.1602L111.107 43.0695L108.364 43.2514L106.58 42.9786L104.749 42.7165L103.012 41.3044L101.49 39.7425L100.222 38.0736L99.7163 35.8057L99.5702 33.7998L100.003 31.0879L100.603 29.0446L102.256 26.3969L104.243 24.6746L106.387 23.1127L108.901 22.3585L111.686 22.1071L113.506 22.6901L115.488 22.8559L117.527 23.8562L119.754 24.4392L120.432 24.0488L120.245 23.0752L118.56 22.2408L116.578 20.9571L114.169 20.0905L111.811 19.7536L109.621 19.9996L111.603 16.3249L112.651 16.1912L114.403 15.2444L116.046 13.8644L116.881 11.7997L117.903 9.53713L117.814 6.39731L118.221 4.14541L117.475 1.41212L117.209 0L116.604 0.106978L116.599 1.61537L115.744 3.53564L113.037 5.81428L112.291 6.84662L108.171 9.90085L107.503 11.8639L108.129 15.6349L109.741 17.1647L108.244 20.0478H105.897L103.779 20.4543L101.255 21.3582L99.6537 22.4494L97.6457 23.7813L96.2583 25.8192L94.7667 27.9053C94.7667 27.9053 93.8175 30.3551 93.7914 30.4675C93.7653 30.5798 93.4106 32.9868 93.4106 32.9868V35.565L93.9009 38.4908L94.9701 40.9353L95.7733 43.1391L96.8894 44.1393L97.9221 45.53L99.6432 47.2417L101.453 48.8464L103.409 49.4722L105.474 50.1836L107.701 50.5473L110.398 50.2531L112.536 49.9375L115.415 49.2101L117.507 48.3756L119.379 47.0438L121.168 45.4872L122.133 43.4225L123.155 41.0209L123.755 38.4053L124 36.4048L123.812 33.9496Z" fill="#F2F2F2"/>
<path d="M12.2722 28.3494C12.2722 30.4622 11.7298 32.115 10.6397 33.3078C9.55491 34.5006 8.0424 35.0944 6.10221 35.0944C4.88698 35.0944 3.81779 34.8216 2.88942 34.276C1.96105 33.7304 1.24652 32.9441 0.751041 31.9224C0.255563 30.9008 0 29.7133 0 28.3494C0 26.2312 0.537203 24.5784 1.61682 23.4016C2.69645 22.2249 4.21418 21.6365 6.17001 21.6365C7.38524 21.6365 8.45443 21.9093 9.3828 22.4495C10.3112 22.9898 11.0257 23.7707 11.5212 24.7816C12.0219 25.8033 12.2722 26.9907 12.2722 28.3494ZM3.52051 28.3494C3.52051 29.6331 3.72391 30.6066 4.13594 31.2645C4.54797 31.9224 5.21556 32.2487 6.14393 32.2487C7.06709 32.2487 7.72947 31.9224 8.13106 31.2699C8.53266 30.6173 8.73607 29.6438 8.73607 28.3494C8.73607 27.0656 8.53266 26.1028 8.12585 25.461C7.71903 24.8191 7.05144 24.4981 6.12307 24.4981C5.19992 24.4981 4.53754 24.8191 4.13073 25.4556C3.72391 26.0921 3.52051 27.0603 3.52051 28.3494Z" fill="#F2F2F2"/>
<path d="M22.187 21.6418C22.6564 21.6418 23.0423 21.6793 23.3553 21.7488L23.0945 25.0705C22.8129 24.9956 22.4739 24.9528 22.0775 24.9528C20.977 24.9528 20.1164 25.2417 19.501 25.8247C18.8855 26.4024 18.5778 27.2154 18.5778 28.2638V34.8697H15.1251V21.8825H17.7381L18.2492 24.0649H18.4214C18.8125 23.3375 19.3445 22.7491 20.0121 22.3051C20.6745 21.8612 21.4047 21.6418 22.187 21.6418Z" fill="#F2F2F2"/>
<path d="M36.6655 21.8825V23.6798L34.6836 24.204C35.0434 24.7817 35.226 25.4342 35.226 26.1563C35.226 27.5471 34.7514 28.6329 33.8073 29.4138C32.8581 30.1894 31.5438 30.5799 29.8644 30.5799L29.2437 30.5425L28.7326 30.489C28.3779 30.7671 28.2006 31.0773 28.2006 31.4197C28.2006 31.9332 28.8317 32.1846 30.1043 32.1846H32.2531C33.6404 32.1846 34.6992 32.4895 35.4294 33.0992C36.1596 33.709 36.5194 34.6076 36.5194 35.7951C36.5194 37.3142 35.904 38.4909 34.6679 39.3254C33.4318 40.1598 31.6637 40.577 29.3533 40.577C27.5852 40.577 26.2396 40.2614 25.306 39.6303C24.3724 38.9991 23.9082 38.1165 23.9082 36.9772C23.9082 36.1963 24.1481 35.5437 24.6227 35.0142C25.0974 34.49 25.7962 34.1102 26.7194 33.8855C26.3647 33.7304 26.057 33.479 25.791 33.126C25.525 32.773 25.3946 32.3985 25.3946 32.0081C25.3946 31.5106 25.5355 31.0987 25.8119 30.7725C26.0935 30.4408 26.4951 30.1199 27.0219 29.8043C26.3595 29.5101 25.8327 29.0394 25.4416 28.3868C25.0504 27.7396 24.8574 26.9694 24.8574 26.0868C24.8574 24.6693 25.306 23.5728 26.2031 22.8026C27.1001 22.027 28.3832 21.6418 30.0521 21.6418C30.4068 21.6418 30.8293 21.6739 31.3143 21.7381C31.7994 21.8023 32.1123 21.8505 32.2479 21.8825H36.6655V21.8825ZM26.8967 36.6991C26.8967 37.1858 27.1262 37.5709 27.58 37.8491C28.0389 38.1272 28.6752 38.2663 29.4993 38.2663C30.7354 38.2663 31.7055 38.0898 32.4096 37.7421C33.1137 37.3944 33.4631 36.9184 33.4631 36.3139C33.4631 35.8272 33.2545 35.4902 32.8425 35.303C32.4252 35.1158 31.7837 35.0249 30.9179 35.0249H29.129C28.4927 35.0249 27.9659 35.18 27.5382 35.4849C27.1106 35.7897 26.8967 36.1963 26.8967 36.6991ZM28.1537 26.1349C28.1537 26.841 28.3101 27.3973 28.6231 27.8092C28.936 28.221 29.4158 28.4243 30.0574 28.4243C30.7041 28.4243 31.1839 28.221 31.4812 27.8092C31.7837 27.3973 31.935 26.841 31.935 26.1349C31.935 24.5731 31.3091 23.7921 30.0574 23.7921C28.7848 23.7868 28.1537 24.5731 28.1537 26.1349Z" fill="#F2F2F2"/>
<path d="M46.7888 34.8643L46.1212 33.0991H46.0325C45.4536 33.848 44.8538 34.3722 44.2384 34.661C43.6229 34.9499 42.8197 35.0943 41.834 35.0943C40.6188 35.0943 39.6643 34.7359 38.9654 34.0245C38.2666 33.3131 37.9171 32.2968 37.9171 30.9809C37.9171 29.6009 38.3865 28.59 39.3253 27.9321C40.2641 27.2795 41.6828 26.9158 43.576 26.8462L45.7718 26.7767V26.2097C45.7718 24.8939 45.1146 24.236 43.8003 24.236C42.7885 24.236 41.5993 24.5515 40.2328 25.1774L39.0906 22.7864C40.5458 22.0055 42.1626 21.615 43.9359 21.615C45.6362 21.615 46.9348 21.9948 47.8423 22.7543C48.7498 23.5139 49.1984 24.6639 49.1984 26.2151V34.8643H46.7888ZM45.7665 28.8521L44.4314 28.9002C43.43 28.9323 42.6789 29.1195 42.1887 29.4565C41.6984 29.7935 41.4533 30.3177 41.4533 31.013C41.4533 32.0133 42.0113 32.5107 43.1275 32.5107C43.9254 32.5107 44.567 32.2754 45.0468 31.8047C45.5266 31.334 45.7665 30.7082 45.7665 29.9219V28.8521Z" fill="#F2F2F2"/>
<path d="M64.4331 34.8644H60.9804V27.2849C60.9804 26.3489 60.8187 25.6482 60.4954 25.1775C60.172 24.7068 59.6557 24.4768 58.9463 24.4768C57.9815 24.4768 57.2826 24.8084 56.8497 25.4716C56.422 26.1349 56.2029 27.2314 56.2029 28.7612V34.8697H52.7502V21.8825H55.3893L55.8535 23.5407H56.0465C56.4324 22.9149 56.9592 22.4388 57.6372 22.1179C58.31 21.7969 59.0819 21.6365 59.9425 21.6365C61.4133 21.6365 62.5294 22.043 63.2909 22.8614C64.0524 23.6798 64.4331 24.8565 64.4331 26.397V34.8644Z" fill="#F2F2F2"/>
<path d="M67.844 18.5287C67.844 17.3734 68.4699 16.801 69.7216 16.801C70.9733 16.801 71.5992 17.3787 71.5992 18.5287C71.5992 19.0797 71.4427 19.5076 71.1298 19.8125C70.8169 20.1174 70.3475 20.2725 69.7216 20.2725C68.4699 20.2725 67.844 19.6894 67.844 18.5287ZM71.4427 34.8643H67.99V21.8825H71.4427V34.8643Z" fill="#F2F2F2"/>
<path d="M80.2049 35.0944C76.2671 35.0944 74.2957 32.8746 74.2957 28.4403C74.2957 26.2365 74.8329 24.5516 75.902 23.3856C76.9712 22.2195 78.5098 21.6365 80.5074 21.6365C81.973 21.6365 83.2821 21.9307 84.4451 22.519L83.4281 25.2577C82.8857 25.033 82.3798 24.8512 81.9104 24.7068C81.441 24.5623 80.9768 24.4928 80.5074 24.4928C78.7132 24.4928 77.8109 25.8033 77.8109 28.4189C77.8109 30.9596 78.708 32.2273 80.5074 32.2273C81.1698 32.2273 81.7852 32.1364 82.3537 31.9545C82.9222 31.7727 83.4855 31.4892 84.054 31.0987V34.1316C83.4959 34.4953 82.9326 34.7467 82.3589 34.8858C81.7904 35.0248 81.0707 35.0944 80.2049 35.0944Z" fill="#F2F2F2"/>
<path d="M55.0138 41.8875C55.0138 41.6522 55.0712 41.481 55.1859 41.3687C55.3006 41.2564 55.4415 41.2029 55.6084 41.2029C55.77 41.2029 55.9109 41.2564 56.0256 41.3687C56.1404 41.481 56.2029 41.6522 56.2029 41.8822C56.2029 42.1122 56.1456 42.2887 56.0256 42.401C55.9109 42.5134 55.77 42.5722 55.6084 42.5722C55.4363 42.5722 55.2954 42.5134 55.1859 42.401C55.0712 42.2941 55.0138 42.1229 55.0138 41.8875ZM56.1038 50.5475H55.0972V43.7383H56.1038V50.5475Z" fill="#F2F2F2"/>
<path d="M62.7849 50.5474V46.1399C62.7849 45.5836 62.6597 45.1718 62.4146 44.899C62.1695 44.6262 61.7835 44.4871 61.2567 44.4871C60.5631 44.4871 60.052 44.6796 59.7286 45.0648C59.4052 45.4499 59.2435 46.0864 59.2435 46.9743V50.5474H58.2369V43.7382H59.0558L59.2175 44.669H59.2644C59.473 44.332 59.7599 44.0752 60.1302 43.888C60.5005 43.7061 60.9177 43.6099 61.3715 43.6099C62.1695 43.6099 62.7745 43.8078 63.1761 44.2036C63.5777 44.5994 63.7811 45.2306 63.7811 46.1025V50.5474H62.7849Z" fill="#F2F2F2"/>
<path d="M75.631 50.5473H74.421L71.1925 46.1398L70.2642 46.9849V50.5473H69.2367V41.4595H70.2642V45.9633L74.2801 41.4595H75.4954L71.9331 45.407L75.631 50.5473Z" fill="#F2F2F2"/>
<path d="M80.7473 45.787H83.7567V50.2052C83.2873 50.3603 82.8127 50.4726 82.3276 50.5529C81.8426 50.6331 81.2793 50.6705 80.643 50.6705C79.3026 50.6705 78.2595 50.264 77.5084 49.4456C76.7626 48.6273 76.3871 47.4826 76.3871 46.0063C76.3871 45.0595 76.5696 44.2358 76.9399 43.5244C77.3102 42.813 77.8422 42.2727 78.5359 41.8983C79.2296 41.5239 80.0432 41.3367 80.9768 41.3367C81.9208 41.3367 82.8022 41.5132 83.6211 41.8716L83.2195 42.8023C82.4215 42.4546 81.6496 42.2781 80.909 42.2781C79.8294 42.2781 78.9896 42.6097 78.3846 43.2676C77.7796 43.9255 77.4771 44.8402 77.4771 46.0116C77.4771 47.2365 77.7692 48.1672 78.3533 48.8038C78.9375 49.4349 79.7928 49.7559 80.9246 49.7559C81.5401 49.7559 82.1398 49.681 82.724 49.5366V46.7391H80.7421V45.787H80.7473Z" fill="#F2F2F2"/>
<path d="M4.73438 12.6704C4.67188 12.5454 4.62109 12.3228 4.58203 12.0024C4.07812 12.5259 3.47656 12.7876 2.77734 12.7876C2.15234 12.7876 1.63867 12.6118 1.23633 12.2603C0.837891 11.9048 0.638672 11.4556 0.638672 10.9126C0.638672 10.2524 0.888672 9.74072 1.38867 9.37744C1.89258 9.01025 2.59961 8.82666 3.50977 8.82666H4.56445V8.32861C4.56445 7.94971 4.45117 7.64893 4.22461 7.42627C3.99805 7.19971 3.66406 7.08643 3.22266 7.08643C2.83594 7.08643 2.51172 7.18408 2.25 7.37939C1.98828 7.57471 1.85742 7.81104 1.85742 8.08838H0.767578C0.767578 7.77197 0.878906 7.46729 1.10156 7.17432C1.32812 6.87744 1.63281 6.64307 2.01562 6.47119C2.40234 6.29932 2.82617 6.21338 3.28711 6.21338C4.01758 6.21338 4.58984 6.39697 5.00391 6.76416C5.41797 7.12744 5.63281 7.62939 5.64844 8.27002V11.188C5.64844 11.77 5.72266 12.2329 5.87109 12.5767V12.6704H4.73438ZM2.93555 11.8442C3.27539 11.8442 3.59766 11.7563 3.90234 11.5806C4.20703 11.4048 4.42773 11.1763 4.56445 10.895V9.59424H3.71484C2.38672 9.59424 1.72266 9.98291 1.72266 10.7603C1.72266 11.1001 1.83594 11.3657 2.0625 11.5571C2.28906 11.7485 2.58008 11.8442 2.93555 11.8442ZM7.08398 9.44775C7.08398 8.4751 7.31445 7.69385 7.77539 7.104C8.23633 6.51025 8.83984 6.21338 9.58594 6.21338C10.3281 6.21338 10.916 6.46729 11.3496 6.9751V3.67041H12.4336V12.6704H11.4375L11.3848 11.9907C10.9512 12.522 10.3477 12.7876 9.57422 12.7876C8.83984 12.7876 8.24023 12.4868 7.77539 11.8853C7.31445 11.2837 7.08398 10.4985 7.08398 9.52979V9.44775ZM8.16797 9.5708C8.16797 10.2896 8.31641 10.8521 8.61328 11.2583C8.91016 11.6646 9.32031 11.8677 9.84375 11.8677C10.5312 11.8677 11.0332 11.5591 11.3496 10.9419V8.02979C11.0254 7.43213 10.5273 7.1333 9.85547 7.1333C9.32422 7.1333 8.91016 7.33838 8.61328 7.74854C8.31641 8.15869 8.16797 8.76611 8.16797 9.5708ZM15.1406 6.33057L15.1699 7.03369C15.6348 6.48682 16.2617 6.21338 17.0508 6.21338C17.9375 6.21338 18.541 6.55322 18.8613 7.23291C19.0723 6.92822 19.3457 6.68213 19.6816 6.49463C20.0215 6.30713 20.4219 6.21338 20.8828 6.21338C22.2734 6.21338 22.9805 6.94971 23.0039 8.42236V12.6704H21.9199V8.48682C21.9199 8.03369 21.8164 7.6958 21.6094 7.47314C21.4023 7.24658 21.0547 7.1333 20.5664 7.1333C20.1641 7.1333 19.8301 7.25439 19.5645 7.49658C19.2988 7.73486 19.1445 8.05713 19.1016 8.46338V12.6704H18.0117V8.51611C18.0117 7.59424 17.5605 7.1333 16.6582 7.1333C15.9473 7.1333 15.4609 7.43604 15.1992 8.0415V12.6704H14.1152V6.33057H15.1406ZM25.8223 12.6704H24.7383V6.33057H25.8223V12.6704ZM24.6504 4.64893C24.6504 4.47314 24.7031 4.32471 24.8086 4.20361C24.918 4.08252 25.0781 4.02197 25.2891 4.02197C25.5 4.02197 25.6602 4.08252 25.7695 4.20361C25.8789 4.32471 25.9336 4.47314 25.9336 4.64893C25.9336 4.82471 25.8789 4.97119 25.7695 5.08838C25.6602 5.20557 25.5 5.26416 25.2891 5.26416C25.0781 5.26416 24.918 5.20557 24.8086 5.08838C24.7031 4.97119 24.6504 4.82471 24.6504 4.64893ZM28.5879 6.33057L28.623 7.12744C29.1074 6.51807 29.7402 6.21338 30.5215 6.21338C31.8613 6.21338 32.5371 6.96924 32.5488 8.48096V12.6704H31.4648V8.4751C31.4609 8.01807 31.3555 7.68018 31.1484 7.46143C30.9453 7.24268 30.627 7.1333 30.1934 7.1333C29.8418 7.1333 29.5332 7.22705 29.2676 7.41455C29.002 7.60205 28.7949 7.84814 28.6465 8.15283V12.6704H27.5625V6.33057H28.5879ZM42.5156 9.5708C42.5156 10.5356 42.2949 11.313 41.8535 11.9028C41.4121 12.4927 40.8145 12.7876 40.0605 12.7876C39.291 12.7876 38.6855 12.5435 38.2441 12.0552V15.1079H37.1602V6.33057H38.1504L38.2031 7.03369C38.6445 6.48682 39.2578 6.21338 40.043 6.21338C40.8047 6.21338 41.4062 6.50049 41.8477 7.07471C42.293 7.64893 42.5156 8.44775 42.5156 9.47119V9.5708ZM41.4316 9.44775C41.4316 8.73291 41.2793 8.16846 40.9746 7.75439C40.6699 7.34033 40.252 7.1333 39.7207 7.1333C39.0645 7.1333 38.5723 7.42432 38.2441 8.00635V11.0356C38.5684 11.6138 39.0645 11.9028 39.7324 11.9028C40.252 11.9028 40.6641 11.6978 40.9688 11.2876C41.2773 10.8735 41.4316 10.2603 41.4316 9.44775ZM47.8125 12.6704C47.75 12.5454 47.6992 12.3228 47.6602 12.0024C47.1562 12.5259 46.5547 12.7876 45.8555 12.7876C45.2305 12.7876 44.7168 12.6118 44.3145 12.2603C43.916 11.9048 43.7168 11.4556 43.7168 10.9126C43.7168 10.2524 43.9668 9.74072 44.4668 9.37744C44.9707 9.01025 45.6777 8.82666 46.5879 8.82666H47.6426V8.32861C47.6426 7.94971 47.5293 7.64893 47.3027 7.42627C47.0762 7.19971 46.7422 7.08643 46.3008 7.08643C45.9141 7.08643 45.5898 7.18408 45.3281 7.37939C45.0664 7.57471 44.9355 7.81104 44.9355 8.08838H43.8457C43.8457 7.77197 43.957 7.46729 44.1797 7.17432C44.4062 6.87744 44.7109 6.64307 45.0938 6.47119C45.4805 6.29932 45.9043 6.21338 46.3652 6.21338C47.0957 6.21338 47.668 6.39697 48.082 6.76416C48.4961 7.12744 48.7109 7.62939 48.7266 8.27002V11.188C48.7266 11.77 48.8008 12.2329 48.9492 12.5767V12.6704H47.8125ZM46.0137 11.8442C46.3535 11.8442 46.6758 11.7563 46.9805 11.5806C47.2852 11.4048 47.5059 11.1763 47.6426 10.895V9.59424H46.793C45.4648 9.59424 44.8008 9.98291 44.8008 10.7603C44.8008 11.1001 44.9141 11.3657 45.1406 11.5571C45.3672 11.7485 45.6582 11.8442 46.0137 11.8442ZM51.4512 6.33057L51.4863 7.12744C51.9707 6.51807 52.6035 6.21338 53.3848 6.21338C54.7246 6.21338 55.4004 6.96924 55.4121 8.48096V12.6704H54.3281V8.4751C54.3242 8.01807 54.2188 7.68018 54.0117 7.46143C53.8086 7.24268 53.4902 7.1333 53.0566 7.1333C52.7051 7.1333 52.3965 7.22705 52.1309 7.41455C51.8652 7.60205 51.6582 7.84814 51.5098 8.15283V12.6704H50.4258V6.33057H51.4512ZM59.6777 12.7876C58.8184 12.7876 58.1191 12.5063 57.5801 11.9438C57.041 11.3774 56.7715 10.6216 56.7715 9.67627V9.47705C56.7715 8.84814 56.8906 8.2876 57.1289 7.79541C57.3711 7.29932 57.707 6.9126 58.1367 6.63525C58.5703 6.354 59.0391 6.21338 59.543 6.21338C60.3672 6.21338 61.0078 6.48486 61.4648 7.02783C61.9219 7.5708 62.1504 8.34814 62.1504 9.35986V9.81104H57.8555C57.8711 10.436 58.0527 10.9419 58.4004 11.3286C58.752 11.7114 59.1973 11.9028 59.7363 11.9028C60.1191 11.9028 60.4434 11.8247 60.709 11.6685C60.9746 11.5122 61.207 11.3052 61.4062 11.0474L62.0684 11.563C61.5371 12.3794 60.7402 12.7876 59.6777 12.7876ZM59.543 7.104C59.1055 7.104 58.7383 7.26416 58.4414 7.58447C58.1445 7.90088 57.9609 8.34619 57.8906 8.92041H61.0664V8.83838C61.0352 8.2876 60.8867 7.86182 60.6211 7.56104C60.3555 7.25635 59.9961 7.104 59.543 7.104ZM64.5879 12.6704H63.5039V3.67041H64.5879V12.6704ZM69.0176 9.44189C69.0176 8.8208 69.1387 8.26221 69.3809 7.76611C69.627 7.27002 69.9668 6.88721 70.4004 6.61768C70.8379 6.34814 71.3359 6.21338 71.8945 6.21338C72.7578 6.21338 73.4551 6.51221 73.9863 7.10986C74.5215 7.70752 74.7891 8.50244 74.7891 9.49463V9.5708C74.7891 10.188 74.6699 10.7427 74.4316 11.2349C74.1973 11.7231 73.8594 12.104 73.418 12.3774C72.9805 12.6509 72.4766 12.7876 71.9062 12.7876C71.0469 12.7876 70.3496 12.4888 69.8145 11.8911C69.2832 11.2935 69.0176 10.5024 69.0176 9.51807V9.44189ZM70.1074 9.5708C70.1074 10.2739 70.2695 10.8384 70.5938 11.2642C70.9219 11.6899 71.3594 11.9028 71.9062 11.9028C72.457 11.9028 72.8945 11.688 73.2188 11.2583C73.543 10.8247 73.7051 10.2192 73.7051 9.44189C73.7051 8.74658 73.5391 8.18408 73.207 7.75439C72.8789 7.3208 72.4414 7.104 71.8945 7.104C71.3594 7.104 70.9277 7.31689 70.5996 7.74268C70.2715 8.16846 70.1074 8.77783 70.1074 9.5708ZM76.6816 12.6704V7.16846H75.6797V6.33057H76.6816V5.68018C76.6816 5.00049 76.8633 4.4751 77.2266 4.104C77.5898 3.73291 78.1035 3.54736 78.7676 3.54736C79.0176 3.54736 79.2656 3.58057 79.5117 3.64697L79.4531 4.52588C79.2695 4.49072 79.0742 4.47314 78.8672 4.47314C78.5156 4.47314 78.2441 4.57666 78.0527 4.78369C77.8613 4.98682 77.7656 5.27979 77.7656 5.6626V6.33057H79.1191V7.16846H77.7656V12.6704H76.6816Z" fill="#F2F2F2"/>
</svg>
