<svg width="28" height="26" viewBox="0 0 28 26" fill="none" xmlns="http://www.w3.org/2000/svg">
<path d="M22.4829 0.794434V4.61648H13.6216C13.6708 4.96852 13.7003 5.3306 13.7003 5.70275C13.7003 6.52751 13.5626 7.33215 13.297 8.10662H20.9879L18.2145 13.0049L17.7719 13.7793V17.6115H10.0417L8.53694 12.673C7.86817 12.8741 7.16989 12.9848 6.47161 12.9848C5.97987 12.9848 5.49795 12.9345 5.02588 12.844L6.48145 17.6517L7.52395 21.1016H21.165V14.7349L24.9022 8.11668L24.9121 8.09656L25.8759 6.39676V4.28457H27.9904V0.794434H22.4829Z" fill="#8E8E8E"/>
<path d="M18.3914 22.2383C17.3784 22.2383 16.5522 23.0832 16.5522 24.1191C16.5522 25.1551 17.3784 26 18.3914 26C19.4044 26 20.2305 25.1551 20.2305 24.1191C20.2305 23.0832 19.4142 22.2383 18.3914 22.2383Z" fill="#8E8E8E"/>
<path d="M10.366 22.2383C9.35299 22.2383 8.52686 23.0832 8.52686 24.1191C8.52686 25.1551 9.35299 26 10.366 26C11.379 26 12.2051 25.1551 12.2051 24.1191C12.1953 23.0832 11.379 22.2383 10.366 22.2383Z" fill="#8E8E8E"/>
<path d="M2.80295 10.0077C3.81595 10.913 5.11416 11.4058 6.46154 11.4058C9.53987 11.4058 12.0379 8.85106 12.0379 5.7029C12.0379 2.55474 9.53987 0 6.47137 0C3.57007 0 1.18019 2.27311 0.914647 5.16983H0L1.78995 8.33811L3.57991 5.16983H2.72427C2.97998 3.28897 4.5634 1.83056 6.47137 1.83056C8.55638 1.83056 10.2578 3.5706 10.2578 5.7029C10.2578 7.8352 8.55638 9.57524 6.47137 9.57524C5.55673 9.57524 4.67158 9.23327 3.98314 8.61973L2.80295 10.0077Z" fill="#8E8E8E"/>
<path d="M5.74365 3.14795V6.78895H8.43842V5.77309H6.73698V3.14795H5.74365Z" fill="#8E8E8E"/>
</svg>
