<svg width="15" height="24" viewBox="0 0 15 24" fill="none" xmlns="http://www.w3.org/2000/svg">
<g clip-path="url(#clip0)">
<path d="M4.39806 16.6606V15.4257C4.39806 14.3602 4.62136 13.4241 5.06796 12.6373C5.51456 11.8506 6.3301 11.0041 7.50485 10.1178C8.64078 9.28133 9.39806 8.60415 9.75728 8.08631C10.1165 7.55851 10.301 6.98091 10.301 6.33361C10.301 5.60664 10.0388 5.05892 9.52427 4.6805C9 4.29212 8.27184 4.1029 7.33981 4.1029C5.70874 4.1029 3.85437 4.65062 1.7767 5.7361L0 2.09129C2.41748 0.697095 4.98058 0 7.69903 0C9.93204 0 11.7087 0.547718 13.0291 1.65311C14.3495 2.75851 15.0097 4.22241 15.0097 6.05477C15.0097 7.27967 14.7379 8.33527 14.1942 9.22158C13.6505 10.1079 12.6214 11.1137 11.1068 12.229C10.068 13.0158 9.40777 13.6232 9.12621 14.0315C8.84466 14.4398 8.70874 14.9876 8.70874 15.6548V16.6606H4.39806Z" fill="#FF6800"/>
<path d="M8.74746 19.5286H4.39795V23.99H8.74746V19.5286Z" fill="#FF6800"/>
</g>
<defs>
<clipPath id="clip0">
<rect width="15" height="24" fill="white"/>
</clipPath>
</defs>
</svg>
