<svg width="25" height="26" viewBox="0 0 25 26" fill="none" xmlns="http://www.w3.org/2000/svg">
<path d="M24.9016 21.5466L21.565 18.9946L17.4311 19.5851L10.4724 20.5758C10.0394 19.9053 9.38976 19.4149 8.64173 19.1747L6.76181 5.55427L6.28937 2.13164L3.12992 0.830639L1.10236 0L0 2.78214L3.60236 4.25327L5.72835 19.5851C4.65551 20.3056 4.02559 21.5966 4.2126 22.9777C4.47835 24.8891 6.22047 26.2202 8.10039 25.95C9.45866 25.7598 10.502 24.7791 10.8858 23.5381L20.7677 22.127L23.2283 24.0185L25 21.6266L24.9016 21.5466ZM7.8248 23.9784C7.01772 24.0885 6.27953 23.5181 6.16142 22.7075C6.05315 21.8868 6.61417 21.1363 7.41142 21.0162C8.2185 20.9061 8.95669 21.4765 9.0748 22.2871C9.18307 23.1078 8.62205 23.8684 7.8248 23.9784Z" fill="#8E8E8E"/>
<path d="M10.6988 18.5341L13.622 18.1138L20.0295 17.1931L22.9527 16.7728L20.8858 1.78125L8.63184 3.5326L9.03538 6.50488L10.2854 15.5619L10.6988 18.5341ZM11.9586 6.08456L18.3661 5.16385L19.6161 14.2208L13.2086 15.1415L11.9586 6.08456Z" fill="#8E8E8E"/>
</svg>
