<svg width="17" height="17" viewBox="0 0 17 17" fill="none" xmlns="http://www.w3.org/2000/svg">
<g clip-path="url(#clip0)">
<path d="M6.88438 1.94862C9.60745 1.94862 11.8223 4.10841 11.8223 6.75776C11.8223 9.40711 9.60745 11.5669 6.88438 11.5669C4.16131 11.5669 1.94642 9.40711 1.94642 6.75776C1.94642 4.10841 4.16131 1.94862 6.88438 1.94862ZM6.88438 0C3.07783 0 0 3.02372 0 6.75776C0 10.4918 3.07783 13.5155 6.88438 13.5155C10.6909 13.5155 13.7688 10.4918 13.7688 6.75776C13.7688 3.02372 10.6813 0 6.88438 0Z" fill="#8E8E8E"/>
<path d="M11.0168 10.8758L16.3 16.3185" stroke="#8E8E8E" stroke-width="2.0315" stroke-miterlimit="10"/>
</g>
<defs>
<clipPath id="clip0">
<rect width="17" height="17" fill="white"/>
</clipPath>
</defs>
</svg>
