<svg width="30" height="25" viewBox="0 0 30 25" fill="none" xmlns="http://www.w3.org/2000/svg">
<path d="M22.5 0H7.5L0 12.5L7.5 25H22.5L30 12.5L22.5 0ZM20.325 21.375H9.675L4.35 12.5L9.675 3.625H20.325L25.65 12.5L20.325 21.375Z" fill="#FF6800"/>
<path d="M15 7.4751C12.225 7.4751 9.97498 9.7251 9.97498 12.5001C9.97498 15.2751 12.225 17.5251 15 17.5251C17.775 17.5251 20.025 15.2751 20.025 12.5001C20.025 9.7251 17.775 7.4751 15 7.4751ZM15 15.0251C13.6125 15.0251 12.475 13.8876 12.475 12.5001C12.475 11.1126 13.6125 9.9751 15 9.9751C16.3875 9.9751 17.525 11.1126 17.525 12.5001C17.525 13.8876 16.3875 15.0251 15 15.0251Z" fill="#FF6800"/>
</svg>
